SplineFontDB: 3.0
FontName: TwidereIconic
FullName: TwidereIconic
FamilyName: TwidereIconic
Weight: Regular
Copyright: Created by Mariotaku Lee,,, with FontForge 2.0 (http://fontforge.sf.net)
UComments: "2014-1-30: Created." 
Version: 001.000
ItalicAngle: 0
UnderlinePosition: -102
UnderlineWidth: 51
Ascent: 819
Descent: 205
LayerCount: 2
Layer: 0 0 "+gMxmbwAA"  1
Layer: 1 0 "+Uk1mbwAA"  0
XUID: [1021 656 1482610534 14720646]
FSType: 0
OS2Version: 0
OS2_WeightWidthSlopeOnly: 0
OS2_UseTypoMetrics: 1
CreationTime: 1391066035
ModificationTime: 1392473222
OS2TypoAscent: 0
OS2TypoAOffset: 1
OS2TypoDescent: 0
OS2TypoDOffset: 1
OS2TypoLinegap: 92
OS2WinAscent: 0
OS2WinAOffset: 1
OS2WinDescent: 0
OS2WinDOffset: 1
HheadAscent: 0
HheadAOffset: 1
HheadDescent: 0
HheadDOffset: 1
OS2Vendor: 'PfEd'
MarkAttachClasses: 1
DEI: 91125
Encoding: UnicodeBmp
UnicodeInterp: none
NameList: Adobe Glyph List
DisplaySize: -72
AntiAlias: 1
FitToEm: 0
WinInfo: 61440 16 6
BeginPrivate: 0
EndPrivate
BeginChars: 65539 76

StartChar: brand_twidere
Encoding: 61440 61440 0
Width: 1024
VWidth: 0
Flags: HW
LayerCount: 2
Fore
SplineSet
393.2 403.05 m 1
 410.8 11.4502 l 1
 202.9 198.45 l 1
 393.2 403.05 l 1
200.7 461.35 m 1
 328.3 344.75 l 1
 209.5 218.25 l 1
 200.7 461.35 l 1
396.5 410.75 m 1
 957.5 461.35 l 1
 702.3 159.95 l 1
 396.5 410.75 l 1
397.6 411.85 m 1
 408.6 18.0498 l 1
 805.7 31.25 l 1
 397.6 411.85 l 1
322.8 593.35 m 1
 451.5 476.75 l 1
 336 350.25 l 1
 206.2 465.75 l 1
 322.8 593.35 l 1
66.5 595.55 m 1
 312.9 595.55 l 1
 199.6 472.35 l 1
 66.5 595.55 l 1
EndSplineSet
Validated: 5
EndChar

StartChar: brand_twitter
Encoding: 61441 61441 1
Width: 1024
VWidth: 0
Flags: HW
LayerCount: 2
Fore
SplineSet
256 20.0664 m 0
 -2.55957 256.653 157.44 690.894 512 690.894 c 0
 866.56 690.894 1026.56 256.653 768 20.0664 c 0
 726.293 -18.0137 683.2 -40.3066 629.333 -55.667 c 1
 544 189.667 l 1
 693.547 261.24 608 409.72 512 409.72 c 0
 416 409.72 330.453 261.24 480 189.667 c 1
 394.667 -55.667 l 1
 340.8 -40.3066 297.707 -18.0137 256 20.0664 c 0
EndSplineSet
Validated: 33
EndChar

StartChar: uniF002
Encoding: 61442 61442 2
Width: 1024
VWidth: 0
Flags: HW
LayerCount: 2
Fore
SplineSet
906 556 m 0
 885 524 858 496 827 474 c 1
 827 467 828 461 828 454 c 0
 828 246 670 6 380 6 c 0
 291 6 208 32 138 77 c 1
 150 76 163 75 176 75 c 0
 250 75 317 100 371 142 c 1
 302 143 244 188 224 251 c 1
 234 249 244 248 254 248 c 0
 268 248 282 250 295 254 c 1
 223 268 169 332 169 408 c 0
 169 409 169 409 169 410 c 1
 190 398 214 392 240 391 c 1
 198 419 170 467 170 522 c 0
 170 551 178 578 192 601 c 1
 270 506 385 443 516 436 c 1
 513 448 512 460 512 472 c 0
 512 559 583 630 670 630 c 0
 715 630 755 611 784 580 c 1
 820 587 854 600 884 618 c 1
 872 581 847 550 815 531 c 1
 847 535 878 543 906 556 c 0
EndSplineSet
Validated: 1
EndChar

StartChar: uniF003
Encoding: 61443 61443 3
Width: 1024
VWidth: 0
Flags: HW
LayerCount: 2
Fore
SplineSet
188 631 m 1
 188 278 l 1
 422 278 l 1
 422 278 422 325 422 328 c 0
 421 330 413 334 410 335 c 2
 389 348 l 2
 383 352 368 364 362 362 c 2
 338 346 l 2
 320 334 298 321 278 312 c 0
 269 308 261 303 251 303 c 0
 226 302 210 330 226 350 c 0
 234 360 251 364 262 370 c 0
 281 379 299 391 316 403 c 1
 310 414 303 418 295 427 c 0
 286 437 278 447 271 458 c 0
 265 467 259 476 260 487 c 0
 261 500 267 503 275 512 c 1
 216 512 l 1
 216 574 l 1
 334 574 l 1
 334 602 l 1
 395 602 l 1
 395 574 l 1
 512 574 l 1
 512 512 l 1
 479 512 l 1
 478 499 472 491 466 480 c 0
 456 462 443 444 430 428 c 0
 424 420 416 413 412 404 c 1
 419 400 415 403 422 397 c 1
 422 397 520 397 540 397 c 1
 540 631 l 1
 188 631 l 1
340 512 m 1
 304 511 l 1
 316 505 318 496 325 486 c 0
 335 473 351 453 364 444 c 1
 380 461 405 491 414 512 c 1
 340 512 l 1
762 104 m 1
 714 234 l 1
 697 280 l 2
 692 297 688 296 678 296 c 2
 638 296 l 2
 628 296 628 294 623 280 c 2
 606 234 l 1
 554 94 l 1
 528 24 l 1
 578 24 l 2
 581 24 587 23 589 25 c 0
 592 27 594 35 595 38 c 2
 605 68 l 2
 606 72 609 78 612 80 c 0
 615 82 620 82 623 82 c 2
 696 82 l 2
 699 82 705 82 708 80 c 0
 711 78 713 72 714 68 c 2
 724 40 l 2
 729 25 728 24 740 24 c 2
 791 24 l 1
 762 104 l 1
695 124 m 1
 624 124 l 1
 659 223 l 1
 695 124 l 1
335 217 m 1
 335 130 l 1
 422 130 l 1
 422 217 l 1
 335 217 l 1
422 -77 m 1
 422 40 l 1
 346 40 l 1
 245 130 l 1
 245 217 l 1
 128 217 l 1
 128 691 l 1
 602 691 l 1
 602 691 602 638 602 631 c 2
 602 397 l 1
 896 397 l 1
 896 -77 l 1
 422 -77 l 1
EndSplineSet
Validated: 33
EndChar

StartChar: uniF020
Encoding: 61472 61472 4
Width: 1024
VWidth: 0
Flags: HW
LayerCount: 2
Fore
SplineSet
886 338 m 1
 886 276 l 1
 543 276 l 1
 543 -67 l 1
 481 -67 l 1
 481 276 l 1
 138 276 l 1
 138 338 l 1
 481 338 l 1
 481 681 l 1
 543 681 l 1
 543 338 l 1
 886 338 l 1
EndSplineSet
Validated: 1
EndChar

StartChar: uniF021
Encoding: 61473 61473 5
Width: 1024
VWidth: 0
Flags: HW
LayerCount: 2
Fore
SplineSet
499 486 m 1
 515 484 561 473 617 417 c 0
 658 376 684 334 687 299 c 1
 436 46 l 1
 436 46 410 76 413 129 c 1
 348 160 337 190 325 215 c 1
 269 213 248 233 248 233 c 1
 499 486 l 1
862 667 m 0
 936 607 914 546 886 517 c 0
 882 513 855 478 837 455 c 1
 836 479 826 522 775 573 c 0
 723 624 676 634 653 636 c 1
 674 653 702 676 711 685 c 0
 737 710 788 727 862 667 c 0
288 184 m 1
 304 133 358 101 378 95 c 1
 377 71 400 26 400 26 c 1
 112 -94 l 1
 227 195 l 1
 227 195 238 184 288 184 c 1
620 609 m 1
 620 609 675 610 744 541 c 0
 814 471 805 422 805 422 c 1
 778 395 l 1
 774 425 752 467 711 507 c 0
 646 571 592 580 592 580 c 1
 620 609 l 1
567 545 m 1
 567 545 619 547 685 481 c 0
 752 414 743 367 743 367 c 1
 717 340 l 1
 713 369 692 409 653 448 c 0
 591 509 539 518 539 518 c 1
 567 545 l 1
EndSplineSet
Validated: 33
EndChar

StartChar: uniF022
Encoding: 61474 61474 6
Width: 1024
VWidth: 0
Flags: HW
LayerCount: 2
Fore
SplineSet
588 447 m 1
 443 447 l 1
 443 633 l 1
 588 633 l 1
 588 447 l 1
 588 447 l 1
692 201 m 1
 692 201 l 1
 319 201 l 1
 319 242 l 1
 692 242 l 1
 692 201 l 1
692 83 m 1
 692 83 l 1
 319 83 l 1
 319 125 l 1
 692 125 l 1
 692 83 l 1
863 518 m 1
 863 -26 l 2
 863 -38 854 -47 842 -47 c 2
 182 -47 l 2
 170 -47 161 -38 161 -26 c 2
 161 640 l 2
 161 652 170 661 182 661 c 2
 268 661 l 1
 268 408 l 1
 648 408 l 1
 648 661 l 1
 719 661 l 1
 863 518 l 1
756 333 m 1
 268 333 l 1
 268 1 l 1
 756 1 l 1
 756 333 l 1
EndSplineSet
Validated: 5
EndChar

StartChar: uniF023
Encoding: 61475 61475 7
Width: 1024
VWidth: 0
Flags: HW
LayerCount: 2
Fore
SplineSet
735 373 m 1
 735 373 l 1
 735 371 l 2
 735 370 l 0
 735 369 l 2
 718 13 l 1
 718 13 l 1
 716 -15 684 -57 512 -57 c 0
 340 -57 308 -15 306 13 c 1
 306 13 l 1
 289 369 l 2
 289 370 l 0
 289 371 l 2
 289 373 l 1
 289 373 l 2
 290 376 291 378 294 381 c 1
 316 358 405 355 512 355 c 0
 619 355 708 358 730 381 c 1
 733 378 735 376 735 373 c 1
618 559 m 1
 705 550 766 531 766 508 c 2
 766 466 l 2
 766 457 757 449 742 442 c 0
 701 423 614 410 512 410 c 0
 410 410 323 423 282 442 c 0
 267 449 258 457 258 466 c 2
 258 508 l 2
 258 530 315 549 397 558 c 1
 397 643 l 2
 397 658 409 671 424 671 c 2
 590 671 l 2
 605 671 618 658 618 643 c 2
 618 559 l 1
450 562 m 2
 470 563 491 564 512 564 c 0
 533 564 553 563 572 562 c 1
 572 597 l 2
 572 612 570 624 567 624 c 0
 564 624 550 624 535 624 c 2
 480 624 l 2
 465 624 450 624 447 624 c 0
 444 624 443 612 443 597 c 2
 443 562 l 1
 450 562 l 2
EndSplineSet
Validated: 5
EndChar

StartChar: uniF024
Encoding: 61476 61476 8
Width: 1024
VWidth: 0
Flags: HW
LayerCount: 2
Fore
SplineSet
888 537 m 1
 433 77 l 1
 433 77 l 1
 389 33 l 1
 136 284 l 1
 180 328 l 1
 388 121 l 1
 844 581 l 1
 888 537 l 1
EndSplineSet
Validated: 5
EndChar

StartChar: uniF025
Encoding: 61477 61477 9
Width: 1024
VWidth: 0
Flags: HW
LayerCount: 2
Fore
SplineSet
798 549 m 1
 556 307 l 1
 798 65 l 1
 754 21 l 1
 512 263 l 1
 270 21 l 1
 226 65 l 1
 468 307 l 1
 226 549 l 1
 270 593 l 1
 512 351 l 1
 754 593 l 1
 798 549 l 1
EndSplineSet
Validated: 1
EndChar

StartChar: uniF026
Encoding: 61478 61478 10
Width: 1024
VWidth: 0
Flags: HW
LayerCount: 2
Fore
SplineSet
629.184 552.994 m 1
 570.016 579.085 503.04 583.182 440.832 563.459 c 0
 322.646 526.253 245.888 414.114 253.856 290.638 c 1
 173.205 285.379 l 1
 162.752 446.125 262.806 592.131 416.459 640.653 c 0
 506.496 669.026 603.979 659.203 686.795 614.456 c 1
 764.213 697.154 l 1
 784.821 467.693 l 1
 541.76 459.608 l 1
 629.184 552.994 l 1
626.187 -24.8398 m 0
 592.128 -35.5176 556.747 -40.9043 521.6 -40.9043 c 0
 464.331 -40.9043 407.52 -26.1416 356.192 1.47461 c 1
 278.667 -81.3516 l 1
 258.069 148.12 l 1
 500.992 156.302 l 1
 413.653 62.8184 l 1
 472.747 36.8242 539.701 32.7383 601.931 52.3652 c 0
 720.096 89.6777 796.971 201.923 788.886 325.165 c 1
 869.547 330.456 l 1
 880.128 169.891 780.064 23.7783 626.187 -24.8398 c 0
EndSplineSet
Validated: 33
EndChar

StartChar: uniF027
Encoding: 61479 61479 11
Width: 1024
VWidth: 0
Flags: HW
LayerCount: 2
Fore
SplineSet
614.934 123.971 m 1
 614.934 -35.9971 l 1
 455.094 -35.9971 l 1
 455.094 123.971 l 1
 614.934 123.971 l 1
455.094 369.229 m 1
 614.934 369.229 l 1
 614.934 209.271 l 1
 455.094 209.271 l 1
 455.094 369.229 l 1
455.094 603.811 m 1
 614.934 603.811 l 1
 614.934 443.875 l 1
 455.094 443.875 l 1
 455.094 603.811 l 1
EndSplineSet
Validated: 1
EndChar

StartChar: uniF028
Encoding: 61480 61480 12
Width: 1024
VWidth: 0
Flags: HW
LayerCount: 2
Fore
SplineSet
640 627 m 1
 256 627 l 1
 256 115 l 1
 288 115 l 1
 288 51 l 1
 256 51 l 1
 192 51 l 1
 192 691 l 1
 704 691 l 1
 704 627 l 1
 704 595 l 1
 640 595 l 1
 640 627 l 1
690 104 m 1
 448 104 l 1
 448 126 l 1
 690 126 l 1
 690 104 l 1
590 168 m 1
 448 168 l 1
 448 190 l 1
 590 190 l 1
 590 168 l 1
633 232 m 1
 448 232 l 1
 448 254 l 1
 633 254 l 1
 633 232 l 1
704 296 m 1
 448 296 l 1
 448 318 l 1
 704 318 l 1
 704 296 l 1
590 360 m 1
 448 360 l 1
 448 382 l 1
 590 382 l 1
 590 360 l 1
768 499 m 1
 384 499 l 1
 384 -13 l 1
 768 -13 l 1
 768 499 l 1
320 -77 m 1
 320 563 l 1
 832 563 l 1
 832 -77 l 1
 320 -77 l 1
EndSplineSet
Validated: 1
EndChar

StartChar: uniF029
Encoding: 61481 61481 13
Width: 1024
VWidth: 0
Flags: HW
LayerCount: 2
Fore
SplineSet
840.106 159.629 m 0
 825.6 170.296 805.227 167.106 794.667 152.707 c 0
 790.496 147.054 788.373 140.44 788.373 133.507 c 0
 788.373 123.149 793.291 113.229 801.6 107.149 c 0
 808.65 102.029 817.291 99.8965 825.813 101.293 c 0
 834.464 102.562 842.026 107.149 847.146 114.189 c 0
 851.317 119.843 853.44 126.467 853.44 133.4 c 0
 853.44 143.747 848.438 153.56 840.106 159.629 c 0
608.106 304.27 m 0
 608.106 290.296 619.52 278.883 633.61 278.883 c 0
 647.595 278.883 658.986 290.285 658.986 304.27 c 0
 658.986 318.36 647.595 329.773 633.61 329.773 c 0
 619.52 329.773 608.106 318.35 608.106 304.27 c 0
825.813 507.362 m 0
 817.291 508.643 808.65 506.627 801.6 501.39 c 0
 793.291 495.31 788.373 485.496 788.373 475.139 c 0
 788.373 468.205 790.496 461.592 794.667 455.949 c 0
 799.787 448.909 807.35 444.312 815.894 443.032 c 0
 824.544 441.646 833.066 443.789 840.106 448.909 c 0
 848.438 454.989 853.439 464.909 853.439 475.256 c 0
 853.439 482.189 851.317 488.813 847.146 494.456 c 0
 842.026 501.39 834.464 505.976 825.813 507.362 c 0
776.31 535.96 m 0
 809.813 560.59 857.066 553.229 881.717 519.778 c 0
 891.211 506.872 896.213 491.522 896.213 475.405 c 0
 896.213 451.629 884.917 429.005 865.92 414.712 c 0
 857.504 408.643 848.106 404.27 838.507 401.923 c 0
 832.117 399.672 826.678 398.712 820.928 397.752 c 0
 812.395 396.365 802.784 394.658 783.37 386.872 c 0
 745.515 371.726 714.037 343.672 713.728 343.459 c 0
 704.33 335.565 695.37 322.125 687.478 304.312 c 1
 695.371 286.595 704.33 273.165 713.515 265.485 c 0
 714.037 264.952 745.621 236.888 783.371 221.741 c 0
 802.784 213.955 812.384 212.354 820.928 210.861 c 0
 826.678 209.901 832.117 209.048 839.264 206.488 c 0
 848.117 204.461 857.504 200.088 865.718 194.008 c 0
 884.8 179.715 896.213 156.984 896.213 133.208 c 0
 896.213 117.102 891.222 101.848 881.718 88.8457 c 0
 857.174 55.3418 809.824 48.0879 776.32 72.6211 c 0
 765.024 80.9414 755.424 93.8369 750.838 102.915 c 0
 748.48 107.608 745.291 113.154 741.333 120.194 c 0
 737.707 126.478 733.44 133.955 728.438 143.128 c 0
 702.293 191.234 675.723 222.381 675.413 222.69 c 0
 675.317 222.808 660.693 239.544 644.48 254.168 c 1
 553.813 215.224 405.227 151.758 391.04 148.237 c 0
 369.707 142.904 349.333 157.944 348.48 158.584 c 2
 339.104 165.624 l 1
 349.12 171.704 l 1
 567.68 304.291 l 1
 349.12 436.974 l 1
 339.104 443.054 l 1
 348.48 450.094 l 2
 349.333 450.744 369.707 465.784 391.04 460.45 c 0
 405.333 456.824 553.813 393.453 644.48 354.52 c 1
 660.683 369.026 675.307 385.784 675.52 385.986 c 0
 675.733 386.189 702.293 417.453 728.438 465.453 c 0
 733.439 474.627 737.707 482.083 741.227 488.376 c 0
 745.28 495.416 748.47 501.08 750.826 505.773 c 0
 755.413 514.84 765.014 527.736 776.31 535.96 c 0
639.787 -13 m 1
 639.787 115 l 1
 703.787 115 l 1
 703.787 -77 l 1
 639.787 -77 l 1
 127.787 -77 l 1
 127.787 691 l 1
 703.787 691 l 1
 703.787 499 l 1
 639.787 499 l 1
 639.787 627 l 1
 191.787 627 l 1
 191.787 -13 l 1
 639.787 -13 l 1
EndSplineSet
Validated: 33
EndChar

StartChar: uniF02A
Encoding: 61482 61482 14
Width: 1024
VWidth: 0
Flags: HW
LayerCount: 2
Fore
SplineSet
682.72 104.333 m 1
 319.946 104.333 l 1
 319.946 125.667 l 1
 682.72 125.667 l 1
 682.72 104.333 l 1
533.28 168.333 m 1
 319.946 168.333 l 1
 319.946 189.667 l 1
 533.28 189.667 l 1
 533.28 168.333 l 1
597.387 232.333 m 1
 319.946 232.333 l 1
 319.946 253.667 l 1
 597.387 253.667 l 1
 597.387 232.333 l 1
704.054 296.333 m 1
 319.946 296.333 l 1
 319.946 317.667 l 1
 704.054 317.667 l 1
 704.054 296.333 l 1
533.28 360.333 m 1
 319.946 360.333 l 1
 319.946 381.667 l 1
 533.28 381.667 l 1
 533.28 360.333 l 1
768.054 595.106 m 1
 618.72 595.106 l 1
 631.094 557.891 l 1
 689.974 544.974 704.054 509.24 704.054 467.106 c 1
 319.946 467.106 l 1
 319.946 507.224 336.587 541.453 392.16 555.747 c 1
 405.28 595.106 l 1
 255.946 595.106 l 1
 255.946 -45.1064 l 1
 768.054 -45.1064 l 1
 768.054 595.106 l 1
511.946 691.106 m 0
 494.347 691.106 479.946 676.813 479.946 659.106 c 0
 479.946 641.518 494.347 627.106 511.946 627.106 c 0
 529.653 627.106 543.946 641.518 543.946 659.106 c 0
 543.946 676.813 529.653 691.106 511.946 691.106 c 0
191.946 -109.106 m 1
 191.946 659.106 l 1
 447.946 659.106 l 1
 447.946 694.52 476.629 723.106 511.946 723.106 c 0
 547.36 723.106 576.054 694.52 576.054 659.106 c 1
 832.054 659.106 l 1
 832.054 -109.106 l 1
 191.946 -109.106 l 1
EndSplineSet
Validated: 1
EndChar

StartChar: uniF02B
Encoding: 61483 61483 15
Width: 1024
VWidth: 0
Flags: H
LayerCount: 2
Fore
SplineSet
732.906 -77 m 1
 692.683 -77 l 1
 692.683 -34.333 l 1
 732.906 -34.333 l 1
 732.906 -77 l 1
652.587 -77 m 1
 612.373 -77 l 1
 612.373 -34.333 l 1
 652.587 -34.333 l 1
 652.587 -77 l 1
572.267 -77 m 1
 532.054 -77 l 1
 532.054 -34.333 l 1
 572.277 -34.333 l 1
 572.277 -77 l 1
 572.267 -77 l 1
411.627 -77 m 1
 371.413 -77 l 1
 371.413 -34.333 l 1
 411.627 -34.333 l 1
 411.627 -77 l 1
331.317 -77 m 1
 291.094 -77 l 1
 291.094 -34.333 l 1
 331.317 -34.333 l 1
 331.317 -77 l 1
480 83 m 1
 288 83 l 1
 288 275 l 1
 480 275 l 1
 480 83 l 1
128 691 m 1
 170.667 691 l 1
 170.667 648.333 l 1
 128 648.333 l 1
 128 691 l 1
128 608.227 m 1
 170.667 608.227 l 1
 170.667 568.014 l 1
 128 568.014 l 1
 128 608.227 l 1
128 527.906 m 1
 170.667 527.906 l 1
 170.667 487.693 l 1
 128 487.693 l 1
 128 527.906 l 1
128 447.587 m 1
 170.667 447.587 l 1
 170.667 407.373 l 1
 128 407.373 l 1
 128 447.587 l 1
128 367.267 m 1
 170.667 367.267 l 1
 170.667 327.054 l 1
 128 327.054 l 1
 128 367.267 l 1
128 286.946 m 1
 170.667 286.946 l 1
 170.667 246.723 l 1
 128 246.723 l 1
 128 286.946 l 1
128 206.627 m 1
 170.667 206.627 l 1
 170.667 166.413 l 1
 128 166.413 l 1
 128 206.627 l 1
128 126.317 m 1
 170.667 126.317 l 1
 170.667 86.0938 l 1
 128 86.0938 l 1
 128 126.317 l 1
128 45.9756 m 1
 170.667 45.9756 l 1
 170.667 5.7627 l 1
 128 5.7627 l 1
 128 45.9756 l 1
128 -34.333 m 1
 170.667 -34.333 l 1
 170.667 -77 l 1
 128 -77 l 1
 128 -34.333 l 1
210.773 691 m 1
 250.986 691 l 1
 250.986 648.333 l 1
 210.773 648.333 l 1
 210.773 691 l 1
210.773 -34.333 m 1
 250.986 -34.333 l 1
 250.986 -77 l 1
 210.773 -77 l 1
 210.773 -34.333 l 1
480 339 m 1
 288 339 l 1
 288 531 l 1
 480 531 l 1
 480 339 l 1
291.094 691 m 1
 331.317 691 l 1
 331.317 648.333 l 1
 291.094 648.333 l 1
 291.094 691 l 1
371.413 691 m 1
 411.627 691 l 1
 411.627 648.333 l 1
 371.413 648.333 l 1
 371.413 691 l 1
451.733 691 m 1
 491.957 691 l 1
 491.957 648.333 l 1
 451.733 648.333 l 1
 451.733 691 l 1
451.733 -34.333 m 1
 491.957 -34.333 l 1
 491.957 -77 l 1
 451.733 -77 l 1
 451.733 -34.333 l 1
532.054 691 m 1
 572.277 691 l 1
 572.277 648.333 l 1
 532.054 648.333 l 1
 532.054 691 l 1
612.373 691 m 1
 652.587 691 l 1
 652.587 648.333 l 1
 612.373 648.333 l 1
 612.373 691 l 1
692.683 691 m 1
 732.906 691 l 1
 732.906 648.333 l 1
 692.683 648.333 l 1
 692.683 691 l 1
544 531 m 1
 736 531 l 1
 736 339 l 1
 544 339 l 1
 544 531 l 1
544 275 m 1
 736 275 l 1
 736 83 l 1
 544 83 l 1
 544 275 l 1
773.024 691 m 1
 813.237 691 l 1
 813.237 648.333 l 1
 773.024 648.333 l 1
 773.024 691 l 1
773.024 -34.333 m 1
 813.237 -34.333 l 1
 813.237 -77 l 1
 773.024 -77 l 1
 773.024 -34.333 l 1
853.333 691 m 1
 896 691 l 1
 896 648.333 l 1
 853.333 648.333 l 1
 853.333 691 l 1
853.333 608.227 m 1
 896 608.227 l 1
 896 568.014 l 1
 853.333 568.014 l 1
 853.333 608.227 l 1
853.333 527.906 m 1
 896 527.906 l 1
 896 487.693 l 1
 853.333 487.693 l 1
 853.333 527.906 l 1
853.333 447.587 m 1
 896 447.587 l 1
 896 407.373 l 1
 853.333 407.373 l 1
 853.333 447.587 l 1
853.333 367.267 m 1
 896 367.267 l 1
 896 327.054 l 1
 853.333 327.054 l 1
 853.333 367.267 l 1
853.333 286.946 m 1
 896 286.946 l 1
 896 246.723 l 1
 853.333 246.723 l 1
 853.333 286.946 l 1
853.333 206.627 m 1
 896 206.627 l 1
 896 166.413 l 1
 853.333 166.413 l 1
 853.333 206.627 l 1
853.333 126.317 m 1
 896 126.317 l 1
 896 86.0938 l 1
 853.333 86.0938 l 1
 853.333 126.317 l 1
853.333 45.9756 m 1
 896 45.9756 l 1
 896 5.7627 l 1
 853.333 5.7627 l 1
 853.333 45.9756 l 1
853.333 -77 m 1
 853.333 -34.333 l 1
 896 -34.333 l 1
 896 -77 l 1
 853.333 -77 l 1
EndSplineSet
Validated: 1
EndChar

StartChar: uniF02C
Encoding: 61484 61484 16
Width: 1024
VWidth: 0
Flags: HW
LayerCount: 2
Fore
SplineSet
512 704 m 1
 630 427 l 1
 929 401 l 1
 702 203 l 1
 770 -90 l 1
 512 65 l 1
 254 -90 l 1
 322 203 l 1
 95 401 l 1
 394 427 l 1
 512 704 l 1
EndSplineSet
Validated: 1
EndChar

StartChar: uniF02D
Encoding: 61485 61485 17
Width: 1024
VWidth: 0
Flags: HW
LayerCount: 2
Fore
SplineSet
216 15 m 1
 272 281 l 1
 628 305 l 1
 628 309 l 1
 272 334 l 1
 216 599 l 1
 808 307 l 1
 216 15 l 1
EndSplineSet
Validated: 1
EndChar

StartChar: uniF02E
Encoding: 61486 61486 18
Width: 1024
VWidth: 0
Flags: HW
LayerCount: 2
Fore
SplineSet
746 170 m 0
 809 170 860 119 860 56 c 0
 860 -7 809 -58 746 -58 c 0
 683 -58 632 -7 632 56 c 0
 632 67 633 77 636 87 c 2
 364 233 l 1
 343 209 312 193 278 193 c 0
 215 193 164 244 164 307 c 0
 164 370 215 421 278 421 c 0
 312 421 343 405 364 381 c 1
 636 527 l 2
 633 537 632 547 632 558 c 0
 632 621 683 672 746 672 c 0
 809 672 860 621 860 558 c 0
 860 495 809 444 746 444 c 0
 712 444 680 460 659 484 c 1
 388 338 l 2
 391 328 392 318 392 307 c 0
 392 296 391 286 388 276 c 2
 659 130 l 1
 680 154 712 170 746 170 c 0
EndSplineSet
Validated: 1
EndChar

StartChar: uniF02F
Encoding: 61487 61487 19
Width: 1024
VWidth: 0
Flags: HW
LayerCount: 2
Fore
SplineSet
26 546 m 1
 379 371 l 1
 733 546 l 1
 733 177 l 1
 26 177 l 1
 26 546 l 1
26 701 m 1
 733 701 l 1
 733 603 l 1
 379 427 l 1
 26 603 l 1
 26 701 l 1
857 101 m 1
 998 101 l 1
 998 56 l 1
 857 56 l 1
 857 -87 l 1
 812 -87 l 1
 812 56 l 1
 671 56 l 1
 671 101 l 1
 812 101 l 1
 812 244 l 1
 857 244 l 1
 857 101 l 1
EndSplineSet
Validated: 1
EndChar

StartChar: uniF030
Encoding: 61488 61488 20
Width: 1024
VWidth: 0
Flags: H
LayerCount: 2
Fore
SplineSet
736 605.667 m 1
 736 573.667 l 1
 245.333 573.667 l 1
 245.333 29.667 l 1
 789.333 29.667 l 1
 789.333 349.667 l 1
 821.333 349.667 l 1
 821.333 -2.33301 l 1
 213.333 -2.33301 l 1
 213.333 605.667 l 1
 736 605.667 l 1
405.333 413.667 m 1
 522.667 307 l 1
 853.333 627 l 1
 928 552.333 l 1
 522.667 147 l 1
 330.667 339 l 1
 405.333 413.667 l 1
EndSplineSet
EndChar

StartChar: uniFFFD
Encoding: 65533 65533 21
Width: 1024
VWidth: 0
Flags: HW
LayerCount: 2
Fore
SplineSet
452.627 126.2 m 0
 442.493 115.854 437.48 101.453 437.48 83.2129 c 0
 437.48 65.4004 442.493 51.4268 452.627 41.1865 c 0
 462.76 30.8398 477.8 25.6133 497.854 25.6133 c 0
 517.48 25.6133 532.307 30.8398 542.333 41.1865 c 0
 552.36 51.4268 557.373 65.4004 557.373 83.2129 c 0
 557.373 101.453 552.36 115.854 542.333 126.2 c 0
 532.307 136.547 517.48 141.88 497.854 141.88 c 0
 477.8 141.88 462.76 136.547 452.627 126.2 c 0
449.213 226.04 m 2
 449.213 200.653 l 1
 539.134 200.653 l 1
 539.134 221.026 l 2
 539.134 227 539.667 232.76 540.627 238.2 c 0
 541.8 243.533 543.4 248.547 545.64 252.813 c 0
 547.986 257.4 552.467 262.733 559.187 269.026 c 0
 565.8 275.32 574.653 282.68 585.64 291 c 0
 614.227 313.187 633.747 333.347 644.2 351.373 c 0
 655.187 370.253 660.627 392.227 660.627 417.507 c 0
 660.627 456.227 647.293 486.52 620.627 508.174 c 0
 593.747 530.04 557.054 541.026 510.333 541.026 c 0
 498.92 541.026 487.08 540.066 474.813 538.146 c 0
 462.76 536.227 450.066 533.24 436.946 528.974 c 0
 423.72 524.92 411.134 520.333 399.507 515.533 c 0
 387.88 510.627 376.894 505.08 366.653 499 c 1
 401.64 423.16 l 1
 424.787 434.36 445.054 442.787 462.653 448.547 c 0
 480.36 454.2 495.613 457.187 508.52 457.187 c 0
 526.547 457.187 540.094 453.134 548.84 445.026 c 0
 557.587 436.92 561.96 426.04 561.96 412.493 c 0
 561.96 405.134 561.213 398.627 559.826 392.866 c 0
 558.547 387.213 556.413 381.88 553.533 376.866 c 0
 550.547 372.066 545.64 366.094 538.707 359.054 c 0
 531.667 352.014 522.174 343.906 510.333 334.627 c 0
 500.52 327.054 491.88 319.16 484.2 311.16 c 0
 476.627 303.267 470.227 294.84 465 285.986 c 0
 459.88 277.24 455.934 267.854 453.16 258.04 c 0
 450.493 248.12 449.213 237.453 449.213 226.04 c 2
511.293 -92.4668 m 1
 110.014 308.174 l 1
 511.293 709.026 l 1
 913.213 308.174 l 1
 511.293 -92.4668 l 1
EndSplineSet
Validated: 1
EndChar

StartChar: uniF080
Encoding: 61568 61568 22
Width: 1024
VWidth: 0
Flags: HW
LayerCount: 2
Fore
SplineSet
512 648.333 m 1
 960 296.333 l 1
 917.333 243 l 1
 512 563 l 1
 106.667 243 l 1
 64 296.333 l 1
 512 648.333 l 1
512 499 m 1
 832 253.667 l 1
 832 19 l 1
 192 19 l 1
 192 253.667 l 1
 512 499 l 1
EndSplineSet
Validated: 1
EndChar

StartChar: uniF081
Encoding: 61569 61569 23
Width: 1024
VWidth: 0
Flags: HW
LayerCount: 2
Fore
SplineSet
159 414 m 1
 512 239 l 1
 865 414 l 1
 865 45 l 1
 159 45 l 1
 159 414 l 1
159 569 m 1
 865 569 l 1
 865 471 l 1
 512 295 l 1
 159 471 l 1
 159 569 l 1
EndSplineSet
Validated: 1
EndChar

StartChar: uniF082
Encoding: 61570 61570 24
Width: 1024
VWidth: 0
Flags: HW
LayerCount: 2
Fore
SplineSet
512 218 m 5
 321 409 l 5
 416 409 l 5
 416 695 l 5
 607 695 l 5
 607 409 l 5
 703 409 l 5
 512 218 l 5
774 456 m 5
 894 218 l 5
 894 -69 l 5
 130 -69 l 5
 130 218 l 5
 249 456 l 5
 303 456 l 5
 183 218 l 5
 321 218 l 5
 321 113 407 27 512 27 c 4
 617 27 703 113 703 218 c 5
 840 218 l 5
 721 456 l 5
 774 456 l 5
EndSplineSet
Validated: 1
EndChar

StartChar: uniF083
Encoding: 61571 61571 25
Width: 1010
VWidth: 0
Flags: HW
LayerCount: 2
Fore
SplineSet
412 494 m 5
 318 494 l 5
 505 682 l 5
 693 494 l 5
 599 494 l 5
 599 213 l 5
 412 213 l 5
 412 494 l 5
763 447 m 5
 881 213 l 5
 881 -69 l 5
 130 -69 l 5
 130 213 l 5
 247 447 l 5
 300 447 l 5
 183 213 l 5
 318 213 l 5
 318 109 401 25 505 25 c 4
 609 25 693 109 693 213 c 5
 828 213 l 5
 711 447 l 5
 763 447 l 5
EndSplineSet
Validated: 1
EndChar

StartChar: uniF084
Encoding: 61572 61572 26
Width: 1024
VWidth: 0
Flags: HW
LayerCount: 2
Fore
SplineSet
657.056 650.413 m 1
 792.106 650.413 l 1
 792.106 -36.4238 l 1
 231.894 -36.4238 l 1
 231.894 650.413 l 1
 657.056 650.413 l 1
729.365 80.877 m 1
 729.365 120.045 l 1
 294.656 120.045 l 1
 294.656 80.877 l 1
 729.365 80.877 l 1
729.365 182.712 m 1
 729.365 223.608 l 1
 292.928 223.608 l 1
 292.928 182.712 l 1
 729.365 182.712 l 1
731.104 286.253 m 1
 731.104 328.898 l 1
 294.656 328.898 l 1
 294.656 286.253 l 1
 731.104 286.253 l 1
731.104 393.282 m 1
 731.104 432.408 l 1
 294.656 432.408 l 1
 294.656 393.282 l 1
 731.104 393.282 l 1
731.104 496.835 m 1
 731.104 536.003 l 1
 294.656 536.003 l 1
 294.656 496.835 l 1
 731.104 496.835 l 1
EndSplineSet
Validated: 1
EndChar

StartChar: uniF085
Encoding: 61573 61573 27
Width: 1024
VWidth: 0
Flags: HW
LayerCount: 2
Fore
SplineSet
241.6 349.464 m 1
 241.6 572.813 l 1
 464.949 572.813 l 1
 464.949 349.464 l 1
 241.6 349.464 l 1
559.04 349.464 m 1
 559.04 572.813 l 1
 782.39 572.813 l 1
 782.39 349.464 l 1
 559.04 349.464 l 1
241.6 41.1865 m 1
 241.6 264.558 l 1
 464.949 264.558 l 1
 464.949 41.1865 l 1
 241.6 41.1865 l 1
559.04 41.1865 m 1
 559.04 264.558 l 1
 782.39 264.558 l 1
 782.39 41.1865 l 1
 559.04 41.1865 l 1
EndSplineSet
Validated: 1
EndChar

StartChar: uniF086
Encoding: 61574 61574 28
Width: 1024
VWidth: 0
Flags: HW
LayerCount: 2
Fore
SplineSet
311.573 507.854 m 1
 768.854 507.854 l 1
 768.854 162.467 l 1
 712.533 162.467 l 1
 712.533 451.533 l 1
 311.573 451.533 l 1
 311.573 507.854 l 1
881.493 620.6 m 1
 881.493 303.267 l 1
 825.174 303.267 l 1
 825.174 564.28 l 1
 536.96 564.28 l 1
 536.96 620.6 l 1
 881.493 620.6 l 1
142.507 395.213 m 1
 656.106 395.213 l 1
 656.106 -6.59961 l 1
 142.507 -6.59961 l 1
 142.507 395.213 l 1
EndSplineSet
Validated: 1
EndChar

StartChar: uniF087
Encoding: 61575 61575 29
Width: 1024
VWidth: 0
Flags: HW
LayerCount: 2
Fore
SplineSet
166.4 652.6 m 1
 483.2 652.6 l 1
 483.2 191.8 l 1
 166.4 191.8 l 1
 166.4 652.6 l 1
540.8 652.6 m 1
 857.6 652.6 l 1
 857.6 326.199 l 1
 540.8 326.199 l 1
 540.8 652.6 l 1
540.8 259 m 1
 857.6 259 l 1
 857.6 -38.5996 l 1
 540.8 -38.5996 l 1
 540.8 259 l 1
483.2 124.6 m 1
 483.2 -38.5996 l 1
 166.4 -38.5996 l 1
 166.4 124.6 l 1
 483.2 124.6 l 1
EndSplineSet
Validated: 1
EndChar

StartChar: uniF088
Encoding: 61576 61576 30
Width: 880
VWidth: 0
Flags: HW
LayerCount: 2
Fore
SplineSet
463 431 m 1
 686 434 837 239 873 54 c 1
 769 137 633 253 463 211 c 1
 463 73 l 1
 148 325 l 1
 463 559 l 1
 463 431 l 1
EndSplineSet
Validated: 33
EndChar

StartChar: uniF089
Encoding: 61577 61577 31
Width: 947
VWidth: 0
Flags: HW
LayerCount: 2
Fore
SplineSet
374 534 m 1
 469 534 687 534 782 534 c 0
 797 535 812 522 812 506 c 0
 812 427 812 347 812 268 c 1
 854 268 896 268 938 268 c 1
 882 206 825 144 769 82 c 0
 766 77 763 83 761 85 c 0
 706 146 649 207 594 268 c 1
 636 268 678 268 720 268 c 1
 720 326 720 384 720 442 c 1
 675 442 508 442 463 442 c 1
 434 473 403 503 374 534 c 1
255 532 m 0
 258 537 261 530 264 528 c 0
 319 467 375 407 430 346 c 1
 388 346 345 346 303 346 c 1
 303 288 303 230 303 172 c 1
 349 172 520 172 566 172 c 1
 595 141 626 111 655 80 c 1
 559 80 337 81 241 81 c 0
 225 81 211 95 212 110 c 0
 212 189 212 267 212 346 c 1
 170 346 128 346 86 346 c 1
 142 408 198 470 255 532 c 0
EndSplineSet
Validated: 33
EndChar

StartChar: uniF08A
Encoding: 61578 61578 32
Width: 1024
VWidth: 0
Flags: HW
LayerCount: 2
Fore
SplineSet
205 310 m 0
 183 310 164 317 147 334 c 0
 132 349 124 368 124 390 c 0
 124 396 124 400 124 403 c 0
 124 444 133 479 148 507 c 0
 168 543 205 576 258 607 c 1
 282 575 l 1
 250 559 229 539 219 517 c 0
 210 495 204 479 204 470 c 1
 225 470 243 462 258 447 c 0
 276 429 284 410 284 390 c 0
 284 369 276 349 259 333 c 0
 243 317 225 310 205 310 c 0
413 306 m 0
 391 306 372 314 355 330 c 0
 340 345 333 364 333 386 c 0
 333 392 333 396 333 399 c 0
 333 439 341 475 356 503 c 0
 376 539 413 572 467 603 c 1
 490 571 l 1
 458 555 437 535 427 513 c 0
 418 491 413 475 413 466 c 1
 434 466 452 458 467 443 c 0
 484 425 493 406 493 386 c 0
 493 365 484 345 467 329 c 0
 451 313 433 306 413 306 c 0
891 280 m 0
 910 260 919 240 919 217 c 0
 919 213 918 208 916 203 c 0
 916 163 908 129 892 99 c 0
 869 63 831 28 776 -4 c 1
 752 30 l 1
 783 46 804 63 816 83 c 0
 826 104 831 120 831 128 c 1
 807 128 785 137 767 155 c 0
 751 172 743 192 743 216 c 0
 743 240 751 260 768 278 c 0
 787 295 808 304 831 304 c 0
 854 304 874 296 891 280 c 0
682 282 m 0
 701 262 710 241 710 218 c 0
 710 214 708 210 706 205 c 0
 706 165 699 130 683 100 c 0
 660 64 622 30 567 -2 c 1
 542 31 l 1
 573 47 595 65 607 85 c 0
 617 107 621 121 621 129 c 1
 597 129 576 138 558 156 c 0
 542 173 534 194 534 218 c 0
 534 242 542 261 559 279 c 0
 578 296 598 305 621 305 c 0
 644 305 665 298 682 282 c 0
EndSplineSet
Validated: 1
EndChar

StartChar: uniF08B
Encoding: 61579 61579 33
Width: 1024
VWidth: 2048
Flags: HW
LayerCount: 2
Fore
SplineSet
460.385 379.858 m 0
 447.615 360.808 441.333 335.069 441.333 302.542 c 0
 441.333 269.405 447.615 243.261 460.385 224.211 c 0
 473.051 205.059 490.379 195.533 512.267 195.533 c 0
 533.749 195.533 550.977 205.16 563.845 224.312 c 0
 576.715 243.666 583.2 269.71 583.2 302.542 c 0
 583.2 335.069 576.715 360.808 563.744 379.858 c 0
 550.773 398.808 533.345 408.334 511.455 408.334 c 0
 490.177 408.334 473.051 398.808 460.385 379.858 c 0
593.333 123.182 m 1
 593.333 181.752 l 2
 585.733 163.715 573.473 149.63 556.65 139.598 c 0
 539.728 129.565 519.968 124.6 497.371 124.6 c 0
 453.797 124.6 418.331 140.915 390.971 173.646 c 0
 363.712 206.376 350.133 249.14 350.133 301.73 c 0
 350.133 354.322 363.813 396.984 391.173 429.816 c 0
 418.533 462.852 454 479.267 497.371 479.267 c 0
 519.968 479.267 539.728 474.1 556.65 463.864 c 0
 573.473 453.63 585.733 439.442 593.333 421.202 c 2
 593.333 469.134 l 1
 684.533 469.134 l 1
 684.533 195.533 l 1
 719.088 200.6 746.347 216.611 766.208 243.666 c 0
 786.069 270.824 796 305.48 796 347.736 c 0
 796 374.589 792.148 399.821 784.448 423.33 c 0
 776.747 446.84 764.991 468.524 749.285 488.184 c 0
 723.951 520.915 692.336 546.248 654.336 563.981 c 0
 616.336 581.816 575.194 590.733 530.912 590.733 c 0
 500.006 590.733 470.415 586.68 442.145 578.572 c 0
 413.973 570.365 387.83 558.51 363.712 542.803 c 0
 324.395 516.658 293.69 482.915 271.601 441.57 c 0
 249.61 400.228 238.667 355.336 238.667 307.202 c 0
 238.667 267.48 245.761 230.29 259.845 195.533 c 0
 274.133 160.776 294.603 130.174 321.354 103.522 c 0
 347.803 77.4805 378.203 57.6182 412.555 43.8369 c 0
 446.806 30.1572 483.488 23.2666 522.4 23.2666 c 0
 555.738 23.2666 589.078 29.6514 622.518 42.4189 c 0
 655.957 55.1865 684.433 72.5146 707.942 94.2002 c 1
 755.467 28.1309 l 1
 722.23 3.70996 685.951 -15.0371 646.837 -28.0078 c 0
 607.621 -41.0801 567.899 -47.666 527.669 -47.666 c 0
 478.421 -47.666 432.011 -38.9521 388.438 -21.7246 c 0
 344.864 -4.49902 306.054 20.5303 272.106 53.4639 c 0
 238.059 86.3975 212.118 124.397 194.282 167.666 c 0
 176.65 211.037 167.733 257.549 167.733 307.304 c 0
 167.733 355.234 176.65 400.936 194.688 444.408 c 0
 212.624 487.88 238.16 526.082 271.296 558.915 c 0
 304.533 591.646 343.242 616.878 387.322 634.712 c 0
 431.605 652.648 477.307 661.666 524.73 661.666 c 0
 583.909 661.666 637.515 650.317 685.749 627.618 c 0
 733.984 605.021 774.314 572.392 806.742 529.73 c 0
 826.603 503.891 841.601 475.821 851.733 445.422 c 0
 861.867 415.021 866.933 383.202 866.933 349.864 c 0
 866.933 278.12 844.539 222.388 799.851 182.664 c 0
 755.061 143.042 691.83 123.182 610.256 123.182 c 2
 593.333 123.182 l 1
EndSplineSet
Validated: 1
EndChar

StartChar: uniF08C
Encoding: 61580 61580 34
Width: 1024
VWidth: 0
Flags: HW
LayerCount: 2
Fore
SplineSet
967 623 m 4
 953 623 936 601 950 586 c 5
 955 579 981 571 996 566 c 5
 983 545 892 525 859 539 c 4
 846 546 824 528 836 508 c 4
 840 502 877 473 895 461 c 5
 882 449 760 454 745 466 c 5
 727 472 705 453 718 435 c 5
 797 383 l 5
 791 369 679 315 652 314 c 5
 627 331 578 332 545 314 c 4
 508 296 430 223 392 172 c 5
 379 149 350 123 291 105 c 5
 476 401 820 680 1038 678 c 5
 1037 652 996 625 967 623 c 4
508 518 m 5
 230 518 l 6
 220 518 210 516 210 504 c 6
 210 76 l 6
 210 69 215 61 223 61 c 6
 638 61 l 6
 650 61 649 67 649 73 c 6
 649 182 l 5
 663 167 731 192 735 205 c 5
 735 54 l 6
 735 18 703 -22 663 -22 c 6
 202 -22 l 6
 165 -22 126 15 126 54 c 6
 126 528 l 6
 126 562 162 598 202 598 c 6
 580 598 l 5
 543 568 538 554 508 518 c 5
EndSplineSet
Validated: 33
EndChar

StartChar: uniF08D
Encoding: 61581 61581 35
Width: 1024
VWidth: 0
Flags: HW
LayerCount: 2
Fore
SplineSet
584.32 592.974 m 0
 616.213 614.307 651.733 624.974 690.986 624.974 c 0
 725.227 624.974 757.974 616.014 789.333 598.2 c 0
 804.693 589.347 818.24 578.894 830.187 566.84 c 0
 842.133 554.68 852.267 541.347 860.48 526.84 c 0
 868.8 512.227 875.2 496.866 879.467 480.547 c 0
 883.946 464.12 886.187 447.373 886.187 430.307 c 0
 886.187 355.427 853.547 278.413 788.48 199.373 c 0
 723.84 120.12 634.667 46.5195 520.96 -21.5332 c 0
 519.68 -22.9199 517.014 -23.667 512.96 -23.667 c 0
 509.014 -23.667 506.24 -22.9199 504.854 -21.5332 c 0
 390.613 46.8398 300.906 120.76 235.84 200.12 c 0
 203.094 239.693 178.667 278.627 162.667 316.813 c 0
 146.773 355.213 138.88 392.974 138.88 430.307 c 0
 138.88 465.08 147.413 497.4 164.48 527.373 c 0
 181.866 556.707 205.866 580.28 236.693 598.2 c 0
 251.946 607.267 267.84 613.986 284.16 618.36 c 0
 300.587 622.733 317.333 624.974 334.507 624.974 c 0
 372.054 624.974 406.826 614.733 439.04 594.36 c 0
 470.826 574.094 495.573 546.04 512.96 510.2 c 1
 520.32 527.48 530.026 542.946 541.974 556.493 c 0
 554.026 570.04 568.106 582.2 584.32 592.974 c 0
EndSplineSet
Validated: 1
EndChar

StartChar: uniF08E
Encoding: 61582 61582 36
Width: 1024
VWidth: 0
Flags: HW
LayerCount: 2
Fore
SplineSet
667 155 m 5
 672 149 700 171 704 178 c 5
 746 171 778 46 709 -3 c 5
 287 -260 -124 270 363 605 c 5
 538 693 649 574 628 488 c 4
 603 378 535 346 581 255 c 5
 555 262 476 218 469 183 c 4
 454 117 411 115 382 117 c 5
 379 112 374 103 367 98 c 5
 365 74 427 38 499 45 c 5
 553 -37 666 -11 644 99 c 5
 654 103 668 128 667 135 c 6
 667 155 l 5
393 94 m 5
 444 91 478 124 488 169 c 5
 491 198 533 227 570 228 c 5
 568 203 596 145 647 148 c 5
 639 64 473 43 393 94 c 5
606 260 m 5
 838 470 l 5
 900 527 948 473 891 419 c 5
 682 187 l 5
 620 137 559 221 606 260 c 5
365 196 m 4
 349 212 328 217 306 214 c 4
 293 211 281 206 271 196 c 4
 225 150 265 70 331 82 c 4
 382 92 402 159 365 196 c 4
354 401 m 4
 342 407 329 408 316 406 c 4
 304 403 297 399 287 391 c 4
 246 352 280 282 337 292 c 4
 394 302 401 377 354 401 c 4
489 508 m 4
 479 513 469 512 458 510 c 4
 444 506 432 500 424 487 c 4
 403 451 437 404 478 414 c 4
 525 424 534 488 489 508 c 4
EndSplineSet
Validated: 33
EndChar

StartChar: uniF08F
Encoding: 61583 61583 37
Width: 1024
VWidth: 0
Flags: HW
LayerCount: 2
Fore
SplineSet
512 653.56 m 0
 703.379 653.56 858.56 498.379 858.56 307 c 0
 858.56 115.621 703.379 -39.5596 512 -39.5596 c 0
 320.621 -39.5596 165.44 115.621 165.44 307 c 0
 165.44 498.379 320.621 653.56 512 653.56 c 0
512 586.173 m 0
 361.439 586.173 232.827 450.533 232.827 307 c 0
 232.827 251.839 259.108 173.094 290.587 133.72 c 1
 685.28 528.413 l 1
 649.469 562.588 586.414 586.173 512 586.173 c 0
512 27.8271 m 0
 662.561 27.8271 791.173 164.333 791.173 307 c 0
 791.173 369.093 769.321 441.772 733.413 480.28 c 1
 338.72 85.5869 l 1
 374.628 53.2402 439.319 27.8271 512 27.8271 c 0
EndSplineSet
Validated: 1
EndChar

StartChar: uniF090
Encoding: 61584 61584 38
Width: 1024
VWidth: 0
Flags: HW
LayerCount: 2
Fore
SplineSet
424.64 659 m 1
 532.16 659 l 1
 485.974 477.667 l 1
 613.12 477.667 l 1
 660.054 659 l 1
 766.507 659 l 1
 719.787 477.667 l 1
 853.333 477.667 l 1
 853.333 371 l 1
 694.187 371 l 1
 661.014 243 l 1
 797.867 243 l 1
 797.867 136.333 l 1
 635.84 136.333 l 1
 589.653 -45 l 1
 482.986 -45 l 1
 529.28 136.333 l 1
 402.026 136.333 l 1
 355.84 -45 l 1
 248.213 -45 l 1
 294.507 136.333 l 1
 160 136.333 l 1
 160 243 l 1
 318.187 243 l 1
 351.787 371 l 1
 215.467 371 l 1
 215.467 477.667 l 1
 378.347 477.667 l 1
 424.64 659 l 1
552.96 243 m 1
 586.667 371 l 1
 459.307 371 l 1
 425.707 243 l 1
 552.96 243 l 1
EndSplineSet
Validated: 1
EndChar

StartChar: uniF091
Encoding: 61585 61585 39
Width: 1024
VWidth: 0
Flags: HW
LayerCount: 2
Fore
SplineSet
138.667 168.333 m 1
 416 456.333 l 1
 512 360.333 l 1
 704 552.333 l 1
 608 648.333 l 1
 885.333 648.333 l 1
 885.333 371 l 1
 800 456.333 l 1
 512 168.333 l 1
 416 264.333 l 1
 234.667 72.333 l 1
 138.667 168.333 l 1
725.333 317.667 m 1
 789.333 381.667 l 1
 789.333 -23.667 l 1
 725.333 -23.667 l 1
 725.333 317.667 l 1
629.333 221.667 m 1
 693.333 285.667 l 1
 693.333 -23.667 l 1
 629.333 -23.667 l 1
 629.333 221.667 l 1
437.333 179 m 1
 501.333 125.667 l 1
 501.12 -23.667 l 1
 437.333 -23.667 l 1
 437.333 179 l 1
533.333 -23.667 m 1
 533.333 125.667 l 1
 598.72 191.054 l 1
 597.333 -23.667 l 1
 533.333 -23.667 l 1
330.667 -23.667 m 1
 330.667 115 l 1
 394.667 179 l 1
 394.667 -23.667 l 1
 330.667 -23.667 l 1
298.667 72.333 m 1
 298.667 -23.667 l 1
 234.667 -23.667 l 1
 234.667 8.33301 l 1
 298.667 72.333 l 1
EndSplineSet
Validated: 1
EndChar

StartChar: uniF0A0
Encoding: 61600 61600 40
Width: 1024
VWidth: 0
Flags: HW
LayerCount: 2
Fore
SplineSet
896.96 483 m 1
 896 -13 l 1
 128 -13 l 1
 128.96 466.253 l 1
 236.16 627 l 1
 453.76 627 l 1
 509.866 542.946 l 1
 572.906 627 l 1
 789.76 627 l 1
 896.96 483 l 1
842.667 445.667 m 1
 516.054 445.667 l 1
 430.72 573.667 l 1
 266.667 573.667 l 1
 181.333 445.667 l 1
 181.333 40.333 l 1
 842.667 40.333 l 1
 842.667 445.667 l 1
EndSplineSet
Validated: 1
EndChar

StartChar: uniF0A1
Encoding: 61601 61601 41
Width: 1024
VWidth: 0
Flags: HW
LayerCount: 2
Fore
SplineSet
128 499 m 1
 341.333 499 l 1
 192 745.613 667.946 764.387 510.08 499 c 1
 704 499 l 1
 704 308.28 l 1
 965.333 435 949.333 3 704 145.72 c 1
 704 -77 l 1
 509.333 -77 l 1
 651.627 169.293 215.68 177.08 357.866 -77 c 1
 128 -77 l 1
 128 172.92 l 1
 370.453 50.7871 393.707 442.467 128 331 c 1
 128 499 l 1
EndSplineSet
Validated: 33
EndChar

StartChar: uniF0A2
Encoding: 61602 61602 42
Width: 1024
VWidth: 0
Flags: HW
LayerCount: 2
Fore
SplineSet
896 605.667 m 1
 896 8.33301 l 1
 128 8.33301 l 1
 128 605.667 l 1
 896 605.667 l 1
234.667 499 m 1
 234.667 371 l 1
 362.667 371 l 1
 362.667 499 l 1
 234.667 499 l 1
394.667 477.667 m 1
 394.667 445.667 l 1
 661.333 445.667 l 1
 661.333 477.667 l 1
 394.667 477.667 l 1
714.667 477.667 m 1
 714.667 445.667 l 1
 778.667 445.667 l 1
 778.667 477.667 l 1
 714.667 477.667 l 1
394.667 424.333 m 1
 394.667 392.333 l 1
 597.333 392.333 l 1
 597.333 424.333 l 1
 394.667 424.333 l 1
234.667 317.667 m 1
 234.667 275 l 1
 778.667 275 l 1
 778.667 317.667 l 1
 234.667 317.667 l 1
234.667 243 m 1
 234.667 200.333 l 1
 778.667 200.333 l 1
 778.667 243 l 1
 234.667 243 l 1
234.667 168.333 m 1
 234.667 125.667 l 1
 629.333 125.667 l 1
 629.333 168.333 l 1
 234.667 168.333 l 1
EndSplineSet
Validated: 1
EndChar

StartChar: uniF0A3
Encoding: 61603 61603 43
Width: 1024
VWidth: 0
Flags: HW
LayerCount: 2
Fore
SplineSet
896 691 m 1
 896 -77 l 1
 128 -77 l 1
 128 691 l 1
 896 691 l 1
181.333 637.667 m 1
 181.333 -23.667 l 1
 842.667 -23.667 l 1
 842.667 637.667 l 1
 181.333 637.667 l 1
480 584.333 m 1
 480 29.667 l 1
 234.667 29.667 l 1
 234.667 584.333 l 1
 480 584.333 l 1
789.333 584.333 m 1
 789.333 339 l 1
 544 339 l 1
 544 584.333 l 1
 789.333 584.333 l 1
789.333 275 m 1
 789.333 29.667 l 1
 544 29.667 l 1
 544 275 l 1
 789.333 275 l 1
EndSplineSet
Validated: 1
EndChar

StartChar: uniF0A4
Encoding: 61604 61604 44
Width: 1024
VWidth: 0
Flags: HW
LayerCount: 2
Fore
SplineSet
794 352 m 5
 748 358 l 5
 744 361 l 5
 748 370 l 5
 754 377 l 5
 762 377 l 5
 792 358 l 5
 794 352 l 5
738 459 m 5
 690 419 l 5
 671 426 l 5
 682 434 l 5
 719 497 l 5
 712 468 l 5
 719 462 l 5
 734 460 l 5
 738 459 l 5
511 660 m 4
 707 660 869 498 869 302 c 4
 869 106 707 -56 511 -56 c 4
 315 -56 155 106 155 302 c 4
 155 498 315 660 511 660 c 4
631 414 m 5
 609 447 l 5
 609 414 l 5
 616 400 l 5
 629 403 l 5
 631 414 l 5
628 492 m 5
 631 500 l 5
 625 504 l 5
 613 500 l 5
 604 503 l 5
 604 490 l 5
 604 487 l 5
 618 485 l 5
 628 492 l 5
432 604 m 5
 418 595 l 5
 436 596 l 5
 472 618 l 5
 461 616 449 615 438 612 c 5
 432 604 l 5
396 599 m 5
 396 584 l 5
 408 575 l 5
 424 574 l 5
 433 583 l 5
 427 583 l 5
 404 596 l 5
 396 599 l 5
349 554 m 5
 349 550 l 5
 358 550 l 5
 365 556 l 5
 366 565 l 5
 360 567 l 5
 349 554 l 5
286 528 m 5
 285 526 l 5
 300 516 l 5
 324 528 l 5
 341 546 l 5
 342 564 l 5
 326 560 l 5
 324 562 l 5
 313 553 304 546 294 536 c 5
 295 534 l 5
 286 528 l 5
343 515 m 5
 344 519 347 520 349 524 c 5
 348 528 l 5
 341 524 l 5
 286 514 l 5
 275 519 l 5
 219 461 188 384 189 298 c 4
 189 297 191 296 191 295 c 6
 198 291 l 5
 227 242 l 5
 314 204 l 5
 326 191 l 5
 326 172 l 5
 316 146 l 5
 315 132 l 5
 353 60 l 5
 354 18 l 5
 375 6 396 -3 418 -10 c 5
 460 42 l 5
 492 68 l 5
 514 135 l 5
 498 146 l 5
 451 160 l 5
 426 196 l 5
 391 208 l 5
 314 210 l 5
 290 252 l 5
 282 252 l 5
 264 242 l 5
 260 247 257 252 257 262 c 5
 260 272 263 278 270 287 c 5
 285 295 l 5
 321 288 l 5
 326 273 l 5
 339 270 l 5
 338 292 l 5
 368 338 l 5
 436 375 l 5
 426 376 l 5
 408 390 l 5
 451 402 l 5
 454 398 l 5
 454 393 449 390 445 387 c 5
 450 382 l 5
 460 382 l 5
 468 384 l 5
 439 456 l 5
 436 455 l 5
 401 472 l 5
 391 465 l 5
 371 412 l 5
 360 420 l 5
 339 432 l 5
 324 448 l 5
 341 474 l 5
 393 515 l 5
 401 535 l 5
 426 520 l 5
 430 513 l 5
 403 491 l 5
 429 474 l 5
 435 479 l 5
 436 478 l 5
 448 495 l 5
 445 498 l 5
 460 515 l 5
 449 534 l 5
 419 558 l 5
 435 560 l 5
 435 566 l 5
 426 567 l 5
 401 554 l 5
 408 566 l 5
 391 560 l 5
 390 521 l 5
 376 513 l 5
 368 521 l 5
 391 566 l 5
 387 569 387 569 383 567 c 5
 343 515 l 5
384 484 m 5
 383 492 l 5
 380 497 l 5
 376 498 l 5
 366 484 l 5
 366 482 l 5
 381 482 l 5
 384 484 l 5
504 474 m 5
 516 463 l 5
 607 541 l 5
 628 600 l 5
 587 616 542 623 492 620 c 5
 490 617 l 5
 480 606 l 5
 478 599 l 5
 481 591 l 5
 505 589 l 5
 511 544 l 5
 500 516 l 5
 497 496 l 5
 504 474 l 5
698 37 m 5
 767 90 831 179 834 302 c 5
 838 378 807 486 727 539 c 5
 717 540 l 5
 698 533 l 5
 652 468 l 5
 654 460 l 5
 676 443 l 5
 676 433 l 5
 612 388 l 5
 613 382 l 5
 618 374 l 5
 621 366 l 5
 593 355 l 5
 592 341 l 5
 593 324 l 5
 552 244 l 5
 552 208 l 5
 582 190 l 5
 633 190 l 5
 654 184 l 5
 698 37 l 5
679 367 m 5
 681 368 684 369 686 370 c 5
 724 331 l 5
 724 331 l 5
 724 346 l 5
 729 339 l 5
 778 327 l 5
 776 313 l 5
 706 298 l 5
 694 303 l 5
 667 328 l 5
 609 324 l 5
 653 358 l 5
 675 358 l 5
 688 336 l 5
 692 337 694 339 696 343 c 5
 695 351 l 5
 680 363 l 5
 678 370 l 5
 679 367 l 5
EndSplineSet
Validated: 37
EndChar

StartChar: uniF0A5
Encoding: 61605 61605 45
Width: 1024
VWidth: 0
Flags: HW
LayerCount: 2
Fore
SplineSet
490 341 m 1
 491 275 l 2
 491 261 490 248 473 243 c 0
 453 238 443 254 443 271 c 2
 443 317 l 2
 443 335 440 350 461 358 c 1
 474 360 486 355 490 341 c 1
428 342 m 1
 429 276 l 2
 429 262 428 248 411 243 c 0
 391 238 381 255 381 272 c 2
 381 318 l 2
 381 336 378 351 399 359 c 1
 412 361 424 356 428 342 c 1
367 343 m 1
 369 277 l 2
 369 263 368 249 351 244 c 0
 331 239 321 256 321 273 c 2
 321 319 l 2
 321 337 318 352 339 360 c 1
 352 362 363 357 367 343 c 1
304 342 m 1
 305 276 l 2
 305 262 304 248 287 243 c 0
 267 238 257 255 257 272 c 2
 257 318 l 2
 257 336 254 351 275 359 c 1
 288 361 300 356 304 342 c 1
744 352 m 0
 761 328 747 294 719 287 c 0
 678 277 649 328 679 358 c 0
 685 364 691 366 699 369 c 0
 717 372 733 368 744 352 c 0
335 610 m 1
 221 454 l 1
 797 454 l 1
 695 610 l 1
 335 610 l 1
221 396 m 1
 221 214 l 1
 797 214 l 1
 797 396 l 1
 221 396 l 1
433 -32 m 0
 221 -32 l 2
 181 -32 181 36 221 36 c 2
 221 36 359 36 433 36 c 0
 460 36 459 -32 433 -32 c 0
587 36 m 0
 797 36 l 2
 847 36 847 -32 797 -32 c 2
 587 -32 l 2
 567 -32 567 36 587 36 c 0
547 45 m 2
 547 45 l 1
 583 18 574 -46 523 -55 c 0
 466 -65 434 5 475 42 c 0
 476 43 478 44 479 45 c 0
 479 46 l 0
 479 150 l 1
 159 150 l 1
 159 454 l 1
 289 670 l 1
 729 670 l 1
 865 454 l 1
 865 150 l 1
 865 150 711 150 547 150 c 1
 547 45 l 2
EndSplineSet
Validated: 37
EndChar

StartChar: uniF0A6
Encoding: 61606 61606 46
Width: 1024
VWidth: 0
Flags: HW
LayerCount: 2
Fore
SplineSet
234.667 104.333 m 1
 234.667 61.667 l 1
 364.587 61.667 l 1
 364.587 104.333 l 1
 234.667 104.333 l 1
192 168.333 m 1
 832 168.333 l 1
 832 19 l 1
 192 19 l 1
 192 168.333 l 1
234.667 317.667 m 1
 234.357 275 l 1
 364.277 275 l 1
 364.587 317.667 l 1
 234.667 317.667 l 1
192 381.667 m 1
 832 381.667 l 1
 832 232.333 l 1
 192 232.333 l 1
 192 381.667 l 1
234.667 531 m 1
 234.667 488.024 l 1
 364.587 488.024 l 1
 364.587 531 l 1
 234.667 531 l 1
192 595 m 1
 832 595 l 1
 832 445.667 l 1
 192 445.667 l 1
 192 595 l 1
EndSplineSet
Validated: 1
EndChar

StartChar: uniF040
Encoding: 61504 61504 47
Width: 1024
VWidth: 0
Flags: HW
LayerCount: 2
Fore
SplineSet
343 446 m 2
 361 446 l 2
 391 446 416 421 416 391 c 2
 416 223 l 2
 416 193 391 168 361 168 c 2
 343 168 l 2
 313 168 288 193 288 223 c 2
 288 391 l 2
 288 421 313 446 343 446 c 2
663 190 m 2
 681 190 l 2
 711 190 736 165 736 135 c 2
 736 -33 l 2
 736 -63 711 -88 681 -88 c 2
 663 -88 l 2
 633 -88 608 -63 608 -33 c 2
 608 135 l 2
 608 165 633 190 663 190 c 2
663 702 m 2
 681 702 l 2
 711 702 736 677 736 647 c 2
 736 479 l 2
 736 449 711 424 681 424 c 2
 663 424 l 2
 633 424 608 449 608 479 c 2
 608 647 l 2
 608 677 633 702 663 702 c 2
576 584 m 1
 576 542 l 1
 128 542 l 1
 128 584 l 1
 576 584 l 1
896 542 m 1
 768 542 l 1
 768 584 l 1
 896 584 l 1
 896 542 l 1
256 328 m 1
 256 286 l 1
 128 286 l 1
 128 328 l 1
 256 328 l 1
896 286 m 1
 448 286 l 1
 448 328 l 1
 896 328 l 1
 896 286 l 1
576 72 m 1
 576 30 l 1
 128 30 l 1
 128 72 l 1
 576 72 l 1
896 30 m 1
 768 30 l 1
 768 72 l 1
 896 72 l 1
 896 30 l 1
EndSplineSet
Validated: 1
EndChar

StartChar: uniF041
Encoding: 61505 61505 48
Width: 1024
VWidth: 0
Flags: HW
LayerCount: 2
Fore
SplineSet
848 70 m 2
 864 54 855 18 828 -9 c 0
 801 -36 765 -45 749 -29 c 2
 619 101 l 2
 608 112 608 133 619 154 c 1
 563 210 l 1
 467 136 328 144 240 232 c 0
 144 328 144 483 240 579 c 0
 336 675 491 675 587 579 c 0
 675 491 683 352 609 256 c 1
 665 200 l 1
 686 211 707 211 718 200 c 2
 848 70 l 2
276 268 m 0
 352 192 475 192 551 268 c 0
 627 344 627 467 551 543 c 0
 475 619 352 619 276 543 c 0
 200 467 200 344 276 268 c 0
EndSplineSet
Validated: 33
EndChar

StartChar: uniF042
Encoding: 61506 61506 49
Width: 1024
VWidth: 0
Flags: HW
LayerCount: 2
Fore
SplineSet
538.134 476.909 m 0
 541.472 474.317 544.182 470.861 546.154 466.638 c 0
 548.149 462.392 549.174 457.059 549.174 450.658 c 0
 549.174 444.408 548.16 439.117 546.154 434.829 c 0
 544.171 430.488 541.461 427.011 538.134 424.419 c 0
 534.763 421.837 530.869 419.949 526.379 418.84 c 0
 521.931 417.741 517.163 417.176 512.106 417.176 c 0
 507.04 417.176 502.24 417.73 497.707 418.84 c 0
 493.174 419.938 489.227 421.837 485.856 424.419 c 0
 482.518 427.021 479.883 430.499 477.931 434.829 c 0
 476.011 439.117 475.029 444.408 475.029 450.658 c 0
 475.029 457.059 476 462.392 477.931 466.638 c 0
 479.872 470.872 482.518 474.317 485.856 476.909 c 0
 489.227 479.49 493.163 481.336 497.707 482.371 c 0
 502.24 483.405 507.04 483.928 512.106 483.928 c 0
 517.163 483.928 521.931 483.405 526.379 482.371 c 0
 530.869 481.336 534.773 479.49 538.134 476.909 c 0
477.941 136.504 m 1
 477.941 386.125 l 1
 546.08 386.125 l 1
 546.08 136.504 l 1
 477.941 136.504 l 1
511.968 641.08 m 0
 696.182 641.08 846.048 491.213 846.048 306.989 c 0
 846.048 122.787 696.182 -27.0801 511.968 -27.0801 c 0
 327.797 -27.0801 177.952 122.776 177.952 306.989 c 0
 177.952 491.203 327.787 641.08 511.968 641.08 c 0
511.968 21.1543 m 0
 669.568 21.1543 797.803 149.39 797.803 306.989 c 0
 797.803 464.621 669.568 592.846 511.968 592.846 c 0
 354.39 592.846 226.187 464.61 226.187 306.989 c 0
 226.187 149.379 354.39 21.1543 511.968 21.1543 c 0
EndSplineSet
Validated: 1
EndChar

StartChar: uniF043
Encoding: 61507 61507 50
Width: 1024
VWidth: 0
Flags: HW
LayerCount: 2
Fore
SplineSet
427.766 199.821 m 1
 427.766 232.461 l 2
 427.766 247.459 429.312 261.059 432.405 273.262 c 0
 435.488 285.464 440.182 297.069 446.507 308.109 c 0
 452.843 319.128 460.981 329.858 470.986 340.302 c 0
 480.981 350.744 493.045 361.55 507.157 372.718 c 0
 519.51 382.424 529.952 391.106 538.475 398.744 c 0
 547.008 406.381 553.909 413.965 559.2 421.464 c 0
 564.49 428.952 568.32 436.813 570.678 445.048 c 0
 573.035 453.282 574.197 462.851 574.197 473.72 c 0
 574.197 490.478 568.533 504.302 557.216 515.182 c 0
 545.888 526.072 528.608 531.501 505.397 531.501 c 0
 485.109 531.501 463.285 527.234 439.894 518.712 c 0
 416.533 510.179 392.331 499.747 367.339 487.384 c 1
 322.347 584.866 l 1
 334.986 592.205 348.736 599.203 363.584 605.816 c 0
 378.442 612.44 393.866 618.317 409.898 623.459 c 0
 425.92 628.6 442.154 632.653 458.624 635.587 c 0
 475.094 638.52 491.274 640.003 507.146 640.003 c 0
 537.142 640.003 564.192 636.387 588.299 629.187 c 0
 612.416 621.976 632.854 611.48 649.6 597.656 c 0
 666.368 583.832 679.222 567.064 688.203 547.373 c 0
 697.163 527.661 701.653 505.176 701.653 479.896 c 0
 701.653 461.379 699.595 444.824 695.478 430.274 c 0
 691.36 415.736 685.27 402.189 677.184 389.698 c 0
 669.077 377.187 658.944 365.133 646.741 353.528 c 0
 634.528 341.912 620.342 329.635 604.182 316.696 c 0
 591.829 307 581.749 298.541 573.952 291.331 c 0
 566.165 284.131 560.064 277.304 555.658 270.829 c 0
 551.242 264.354 548.234 257.667 546.613 250.755 c 0
 544.992 243.843 544.182 235.693 544.182 226.285 c 2
 544.182 199.821 l 1
 427.766 199.821 l 1
413.205 48.9844 m 0
 413.205 62.7969 415.189 74.4883 419.168 84.0449 c 0
 423.125 93.6025 428.65 101.314 435.701 107.203 c 0
 442.752 113.091 451.062 117.336 460.629 119.981 c 0
 470.176 122.638 480.395 123.96 491.274 123.96 c 0
 501.568 123.96 511.35 122.638 520.608 119.981 c 0
 529.856 117.336 538.026 113.091 545.088 107.203 c 0
 552.139 101.314 557.729 93.6025 561.835 84.0449 c 0
 565.963 74.4883 568.021 62.7969 568.021 48.9844 c 0
 568.021 35.7471 565.963 24.4297 561.835 15.0215 c 0
 557.717 5.60254 552.139 -2.18359 545.088 -8.36035 c 0
 538.026 -14.5254 529.855 -19.0059 520.608 -21.8105 c 0
 511.35 -24.6055 501.568 -26.0029 491.274 -26.0029 c 0
 480.384 -26.0029 470.165 -24.6055 460.629 -21.8105 c 0
 451.072 -19.0059 442.752 -14.5254 435.701 -8.36035 c 0
 428.65 -2.18359 423.125 5.61328 419.168 15.0215 c 0
 415.189 24.4297 413.205 35.7363 413.205 48.9844 c 0
EndSplineSet
Validated: 1
EndChar

StartChar: uniF044
Encoding: 61508 61508 51
Width: 1024
VWidth: 0
Flags: HW
LayerCount: 2
Fore
SplineSet
249.291 138.712 m 1
 194.976 201.603 l 1
 511.979 475.288 l 1
 829.024 201.603 l 1
 774.763 138.712 l 1
 511.979 365.528 l 1
 249.291 138.712 l 1
EndSplineSet
Validated: 1
EndChar

StartChar: uniF045
Encoding: 61509 61509 52
Width: 1024
VWidth: 0
Flags: HW
LayerCount: 2
Fore
SplineSet
774.698 475.288 m 1
 829.035 412.376 l 1
 512.021 138.712 l 1
 194.965 412.376 l 1
 249.237 475.288 l 1
 512.021 248.461 l 1
 774.698 475.288 l 1
EndSplineSet
Validated: 1
EndChar

StartChar: uniF046
Encoding: 61510 61510 53
Width: 1024
VWidth: 0
Flags: HW
LayerCount: 2
Fore
SplineSet
689.248 30.3281 m 1
 623.019 -26.8984 l 1
 334.752 306.936 l 1
 623.019 640.898 l 1
 689.248 583.747 l 1
 450.379 306.936 l 1
 689.248 30.3281 l 1
EndSplineSet
Validated: 1
EndChar

StartChar: uniF047
Encoding: 61511 61511 54
Width: 1024
VWidth: 0
Flags: HW
LayerCount: 2
Fore
SplineSet
334.752 583.672 m 1
 401.003 640.888 l 1
 689.248 306.989 l 1
 401.003 -26.8877 l 1
 334.752 30.2637 l 1
 573.632 306.989 l 1
 334.752 583.672 l 1
EndSplineSet
Validated: 1
EndChar

StartChar: uniF048
Encoding: 61512 61512 55
Width: 1024
VWidth: 0
Flags: HW
LayerCount: 2
Fore
SplineSet
390.997 334.317 m 2
 390.997 569.986 l 2
 390.997 636.781 445.184 690.926 511.968 690.926 c 0
 578.752 690.926 632.906 636.781 632.906 569.986 c 2
 632.906 334.317 l 2
 632.906 267.501 578.752 213.379 511.968 213.379 c 0
 445.184 213.379 390.997 267.501 390.997 334.317 c 2
793.941 329.997 m 1
 793.941 188.941 690.496 72.1201 555.296 51.1924 c 1
 555.296 -77.0645 l 1
 471.52 -77.0645 l 1
 471.52 50.7441 l 1
 334.806 70.3066 229.696 187.875 229.696 329.997 c 1
 312.811 329.997 l 1
 312.811 219.992 401.931 130.872 511.968 130.872 c 0
 622.006 130.872 711.125 220.003 711.125 329.997 c 1
 793.941 329.997 l 1
EndSplineSet
Validated: 1
EndChar

StartChar: uniF049
Encoding: 61513 61513 56
Width: 1024
VWidth: 0
Flags: HW
LayerCount: 2
Fore
SplineSet
395.595 301.688 m 2
 392.693 312.066 390.997 323 390.997 334.317 c 2
 390.997 569.986 l 2
 390.997 636.781 445.184 690.926 511.968 690.926 c 0
 578.752 690.926 632.906 636.781 632.906 569.986 c 2
 632.906 516.44 l 1
 395.595 301.688 l 2
632.906 334.317 m 2
 632.906 267.501 578.752 213.379 511.979 213.379 c 0
 500.16 213.379 488.789 215.128 477.974 218.317 c 2
 632.906 358.51 l 1
 632.906 334.317 l 2
511.968 130.872 m 0
 621.995 130.872 711.125 220.003 711.115 330.008 c 1
 793.931 330.008 l 1
 793.931 188.941 690.496 72.1309 555.307 51.1924 c 1
 555.307 -77.0537 l 1
 471.53 -77.0537 l 1
 471.53 50.7549 l 1
 425.877 57.3145 383.84 74.9463 348 100.632 c 1
 411.562 158.189 l 1
 441.066 140.877 475.307 130.872 511.968 130.872 c 0
332.342 244.439 m 1
 268.778 186.872 l 1
 243.989 228.877 229.696 277.752 229.696 329.997 c 1
 312.811 329.997 l 1
 312.811 299.32 319.936 270.381 332.342 244.439 c 1
792.971 550.989 m 1
 232.416 43.7471 l 1
 201.248 78.1895 l 1
 761.781 585.442 l 1
 792.971 550.989 l 1
EndSplineSet
Validated: 33
EndChar

StartChar: uniF04A
Encoding: 61514 61514 57
Width: 1024
VWidth: 0
Flags: HW
LayerCount: 2
Fore
SplineSet
821.813 561.72 m 1
 856.085 481.549 874.08 393.091 874.08 305.123 c 0
 874.08 217.304 856.085 128.707 821.813 48.5146 c 1
 781.643 72.0986 l 1
 813.205 144.792 829.952 225.123 829.952 305.123 c 0
 829.952 385.134 813.205 465.464 781.643 538.146 c 1
 821.813 561.72 l 1
703.35 429.912 m 1
 746.059 450.797 l 1
 764.704 404.408 775.68 355.96 775.68 306.712 c 0
 775.68 256.515 763.114 211.245 744.117 164.558 c 1
 703.35 178.723 l 1
 719.125 218.242 731.392 261.773 731.392 304.643 c 0
 731.392 347.512 719.125 390.381 703.35 429.912 c 1
621.621 346.253 m 1
 657.824 362.926 l 1
 674.539 326.658 674.72 281.005 658.347 237.656 c 1
 621.099 251.736 l 1
 633.707 285.144 633.909 319.598 621.621 346.253 c 1
508.854 680.547 m 2
 549.558 680.547 578.624 514.04 578.635 307.789 c 0
 578.635 101.561 547.968 -66.5469 507.146 -66.5469 c 2
 445.387 -66.5469 l 2
 425.803 -66.5469 326.944 78.8936 269.216 166.413 c 1
 237.643 166.413 l 1
 237.643 166.915 l 1
 190.336 166.915 l 2
 168.064 166.915 149.92 229.08 149.92 306.989 c 0
 149.92 384.898 168.064 447.085 190.336 447.085 c 2
 278.208 447.085 l 1
 335.616 540.163 425.482 680.547 445.376 680.547 c 2
 508.854 680.547 l 2
497.579 -15.7305 m 0
 521.077 -15.7305 540.043 128.898 540.032 306.989 c 0
 540.032 485.251 521.066 629.72 497.579 629.72 c 0
 478.763 629.72 453.109 537.325 443.478 409.134 c 1
 469.664 393.102 488.224 353.581 488.224 306.989 c 0
 488.224 260.525 469.664 220.877 443.478 204.856 c 1
 453.109 76.792 478.752 -15.7305 497.579 -15.7305 c 0
EndSplineSet
Validated: 33
EndChar

StartChar: uniF04B
Encoding: 61515 61515 58
Width: 1024
VWidth: 0
Flags: HW
LayerCount: 2
Fore
SplineSet
824 615 m 1
 860 573 l 1
 200 -24 l 1
 164 18 l 1
 824 615 l 1
271 167 m 2
 249 167 231 229 231 307 c 0
 231 385 249 447 271 447 c 2
 358 447 l 1
 415 540 505 680 525 680 c 2
 588 680 l 2
 614 680 636 609 648 503 c 1
 613 472 l 1
 606 566 592 630 577 630 c 0
 558 630 533 537 523 409 c 0
 527 407 531 403 534 400 c 2
 276 167 l 1
 271 167 l 2
619 291 m 1
 658 325 l 1
 658 308 l 2
 658 102 628 -66 587 -66 c 2
 525 -66 l 2
 510 -66 452 15 399 92 c 1
 523 204 l 1
 533 77 558 -16 577 -16 c 0
 600 -16 618 121 619 291 c 1
EndSplineSet
Validated: 1
EndChar

StartChar: uniF04C
Encoding: 61516 61516 59
Width: 1024
VWidth: 0
Flags: HW
LayerCount: 2
Fore
SplineSet
689.504 339.886 m 1
 777.333 339.886 l 1
 777.333 -15.4424 l 1
 246.667 -15.4424 l 1
 246.667 339.886 l 1
 334.464 339.886 l 1
 334.464 454.435 l 2
 334.464 541.4 395.435 629.442 512 629.442 c 0
 628.565 629.442 689.504 541.4 689.504 454.435 c 2
 689.504 339.886 l 1
409.205 454.435 m 2
 409.205 339.886 l 1
 614.795 339.886 l 1
 614.795 454.435 l 2
 614.795 502.755 582.624 554.712 512 554.712 c 0
 441.376 554.712 409.205 502.755 409.205 454.435 c 2
EndSplineSet
Validated: 1
EndChar

StartChar: uniF04D
Encoding: 61517 61517 60
Width: 1024
VWidth: 0
Flags: HW
LayerCount: 2
Fore
SplineSet
689.504 303.854 m 1
 777.333 303.854 l 1
 777.333 -51.4746 l 1
 246.667 -51.4746 l 1
 246.667 303.854 l 1
 614.795 303.854 l 1
 614.795 490.456 l 2
 614.795 538.787 582.624 590.733 512 590.733 c 0
 441.365 590.733 409.205 538.787 409.205 490.456 c 2
 409.205 376.771 l 1
 334.453 376.771 l 1
 334.453 490.456 l 2
 334.453 577.421 395.435 665.475 512 665.475 c 0
 628.565 665.475 689.504 577.421 689.504 490.456 c 2
 689.504 303.854 l 1
EndSplineSet
Validated: 1
EndChar

StartChar: uniF04E
Encoding: 61518 61518 61
Width: 1024
VWidth: 0
Flags: HW
LayerCount: 2
Fore
SplineSet
873.994 38.2109 m 2
 891.851 7.22363 877.27 -18.1094 841.536 -18.1094 c 2
 182.496 -18.1094 l 2
 146.741 -18.1094 132.117 7.22363 150.016 38.2109 c 2
 479.499 608.866 l 2
 497.387 639.864 526.646 639.864 544.49 608.866 c 2
 873.994 38.2109 l 2
557.482 72.3975 m 1
 557.472 72.3975 l 1
 557.472 160.387 l 1
 466.56 160.387 l 1
 466.56 72.3975 l 1
 557.482 72.3975 l 1
557.482 216.088 m 1
 557.472 216.088 l 1
 557.472 424.344 l 1
 466.56 424.344 l 1
 466.56 216.088 l 1
 557.482 216.088 l 1
EndSplineSet
Validated: 37
EndChar

StartChar: uniF04F
Encoding: 61519 61519 62
Width: 1024
VWidth: 0
Flags: HW
LayerCount: 2
Fore
SplineSet
646.912 637.646 m 1
 842.656 441.912 l 1
 842.656 172.077 l 1
 646.912 -23.6562 l 1
 377.045 -23.6562 l 1
 181.333 172.077 l 1
 181.333 441.912 l 1
 377.045 637.646 l 1
 646.912 637.646 l 1
555.274 134.872 m 1
 555.274 206.818 l 1
 469.045 206.818 l 1
 469.045 134.872 l 1
 555.274 134.872 l 1
555.274 249.795 m 1
 555.274 508.354 l 1
 469.045 508.056 l 1
 469.045 249.496 l 1
 555.274 249.795 l 1
EndSplineSet
Validated: 1
EndChar

StartChar: uniF050
Encoding: 61520 61520 63
Width: 1024
VWidth: 0
Flags: HW
LayerCount: 2
Fore
SplineSet
269.109 63.6455 m 0
 267.701 66.5791 263.595 69.042 261.014 70.8027 c 2
 244.586 82.418 l 2
 226.869 95.9121 213.141 108.701 197.653 124.776 c 0
 152.362 172.179 121.152 238.706 116.576 304.296 c 2
 115.521 316.03 l 2
 115.168 349.938 118.454 379.742 128.778 412.242 c 0
 137.931 440.637 152.832 470.205 170.198 494.376 c 0
 292.224 665.096 548.362 699.592 726.827 603.144 c 0
 814.24 555.858 885.344 474.664 902.122 374.696 c 0
 904.117 362.611 906.229 349.353 906.347 337.149 c 0
 906.698 302.888 903.296 272.498 892.618 239.763 c 0
 883.115 210.547 868.683 182.621 850.848 157.629 c 0
 819.521 113.629 779.392 80.0723 732.693 53.4375 c 0
 675.553 20.8184 605.973 0.87207 540.267 -1.94434 c 2
 525.014 -3.11719 l 2
 494.977 -3.11719 466.698 -2.17871 437.014 2.63184 c 2
 408.854 7.91211 l 2
 405.099 8.7334 398.293 11.0791 394.773 10.0234 c 0
 391.488 8.96777 247.637 -119.16 239.894 -122.797 c 2
 239.894 -122.797 270.635 60.4775 269.109 63.6455 c 0
475.733 533.096 m 1
 489.813 262.056 l 1
 542.613 262.056 l 1
 555.521 533.096 l 1
 475.733 533.096 l 1
486.528 179.923 m 0
 462.475 153.171 480.544 109.757 516.8 108.349 c 0
 557.046 106.823 576.991 156.574 547.307 183.208 c 0
 543.317 186.729 538.272 189.779 533.227 191.539 c 0
 526.656 193.768 520.085 194.354 513.279 193.65 c 0
 502.251 191.891 494.154 188.371 486.528 179.923 c 0
EndSplineSet
Validated: 33
EndChar

StartChar: uniF058
Encoding: 61528 61528 64
Width: 1024
VWidth: 0
Flags: HW
LayerCount: 2
Fore
SplineSet
628.522 392.835 m 1
 542.816 306.915 l 1
 631.125 218.35 l 1
 600.213 187.31 l 1
 597.6 189.912 l 1
 511.894 275.896 l 1
 423.605 187.31 l 1
 392.661 218.35 l 1
 395.253 220.941 l 1
 481.003 306.915 l 1
 392.661 395.438 l 1
 423.605 426.478 l 1
 426.208 423.917 l 1
 511.894 337.891 l 1
 600.213 426.478 l 1
 631.083 395.438 l 1
 628.522 392.835 l 1
886.88 328.92 m 1
 887.019 286.552 l 1
 798.144 286.402 l 1
 787.957 144.92 675.146 31.6504 533.707 20.9629 c 1
 533.898 -67.9756 l 1
 491.478 -68.04 l 1
 491.328 20.8984 l 1
 349.866 31.043 236.587 143.854 225.877 285.271 c 1
 137.024 285.102 l 1
 136.981 327.48 l 1
 225.835 327.672 l 1
 235.957 469.123 348.8 582.392 490.208 593.08 c 1
 490.037 681.965 l 1
 532.48 682.04 l 1
 532.65 593.187 l 1
 674.134 583.043 787.402 470.211 798.091 328.771 c 1
 886.88 328.92 l 1
512.416 62.2529 m 0
 647.392 62.499 757.088 172.504 756.789 307.47 c 0
 756.544 442.478 646.496 552.077 511.488 551.832 c 0
 376.522 551.565 266.923 441.518 267.211 306.53 c 0
 267.456 171.565 377.44 61.9863 512.416 62.2529 c 0
EndSplineSet
Validated: 33
EndChar

StartChar: uniF068
Encoding: 61544 61544 65
Width: 1024
VWidth: 0
Flags: HW
LayerCount: 2
Fore
SplineSet
512 615 m 0
 626 615 718 523 718 409 c 0
 718 295 626 204 512 204 c 0
 398 204 306 295 306 409 c 0
 306 523 398 615 512 615 c 0
522 246 m 0
 583 246 638 287 669 348 c 1
 375 348 l 1
 406 287 461 246 522 246 c 0
636 177 m 1
 716 156 778 106 807 -1 c 1
 217 -1 l 1
 246 106 308 156 388 177 c 1
 425 157 467 146 512 146 c 0
 557 146 599 157 636 177 c 1
EndSplineSet
Validated: 1
EndChar

StartChar: uniF069
Encoding: 61545 61545 66
Width: 512
VWidth: 0
Flags: HW
LayerCount: 2
Fore
SplineSet
384 177 m 0
 287 177 208 256 208 353 c 0
 208 450 287 530 384 530 c 0
 481 530 560 450 560 353 c 0
 560 256 481 177 384 177 c 0
518 301 m 1
 267 301 l 1
 294 249 341 214 393 214 c 0
 446 214 491 249 518 301 c 1
490 154 m 1
 558 136 612 94 637 2 c 1
 131 2 l 1
 156 94 210 136 278 154 c 1
 310 137 346 128 384 128 c 0
 422 128 458 137 490 154 c 1
595 383 m 1
 586 447 547 502 494 535 c 1
 526 581 580 612 640 612 c 0
 737 612 816 533 816 436 c 0
 816 339 737 259 640 259 c 0
 619 259 599 263 580 270 c 1
 585 283 589 296 592 310 c 1
 609 301 628 296 648 296 c 0
 701 296 747 331 774 383 c 1
 595 383 l 1
746 237 m 1
 814 219 868 176 893 84 c 1
 643 84 l 1
 614 134 571 168 514 186 c 1
 529 198 543 212 555 227 c 1
 581 216 610 210 640 210 c 0
 678 210 714 220 746 237 c 1
EndSplineSet
Validated: 1
EndChar

StartChar: uniF06A
Encoding: 61546 61546 67
Width: 1024
VWidth: 0
Flags: HW
LayerCount: 2
Fore
SplineSet
512 615 m 0
 626 615 718 523 718 409 c 0
 718 295 626 203 512 203 c 0
 398 203 306 295 306 409 c 0
 306 523 398 615 512 615 c 0
522 246 m 0
 583 246 638 287 669 348 c 1
 375 348 l 1
 406 287 461 246 522 246 c 0
289 327 m 1
 292 320 295 313 298 306 c 0
 278 288 252 277 223 277 c 0
 162 277 113 326 113 387 c 0
 113 448 162 498 223 498 c 0
 246 498 267 491 285 479 c 1
 278 457 274 433 274 409 c 0
 274 390 277 372 281 354 c 1
 150 354 l 1
 167 321 196 300 229 300 c 0
 252 300 273 310 289 327 c 1
801 498 m 0
 862 498 911 448 911 387 c 0
 911 326 862 277 801 277 c 0
 772 277 746 288 726 306 c 0
 731 316 735 326 738 337 c 1
 755 314 779 300 806 300 c 0
 839 300 868 321 885 354 c 1
 743 354 l 1
 747 372 750 390 750 409 c 0
 750 433 746 457 739 479 c 1
 757 491 778 498 801 498 c 0
636 177 m 1
 716 156 778 106 807 -1 c 1
 216 -1 l 1
 245 106 308 156 388 177 c 1
 425 157 467 146 512 146 c 0
 557 146 599 157 636 177 c 1
355 223 m 1
 316 210 283 192 255 167 c 1
 64 167 l 1
 79 225 114 251 157 262 c 1
 177 251 199 245 223 245 c 0
 247 245 270 251 290 262 c 1
 315 255 338 244 355 223 c 1
769 167 m 1
 741 192 708 210 669 223 c 1
 686 244 709 255 734 262 c 1
 754 251 777 245 801 245 c 0
 825 245 847 251 867 262 c 1
 910 251 945 225 960 167 c 1
 769 167 l 1
EndSplineSet
Validated: 1
EndChar

StartChar: uniF05C
Encoding: 61532 61532 68
Width: 1024
VWidth: 0
Flags: HW
LayerCount: 2
Fore
SplineSet
644 274 m 0
 644 201 585 142 512 142 c 0
 439 142 380 201 380 274 c 0
 380 347 439 406 512 406 c 0
 585 406 644 347 644 274 c 0
870 526 m 1
 870 526 870 511 870 493 c 2
 870 61 l 2
 870 43 871 28 870 28 c 0
 153 28 l 1
 153 28 153 43 153 61 c 2
 153 61 153 414 153 430 c 0
 153 467 l 1
 310 518 l 1
 310 518 333 526 354 526 c 0
 399 526 l 1
 399 554 l 2
 399 590 399 586 399 586 c 1
 627 586 l 1
 627 586 627 590 627 554 c 2
 627 526 l 1
 870 526 l 1
512 81 m 0
 619 81 705 167 705 274 c 0
 705 381 619 467 512 467 c 0
 405 467 319 381 319 274 c 0
 319 167 405 81 512 81 c 0
298 543 m 1
 183 504 l 1
 183 557 l 2
 183 567 l 1
 298 567 l 1
 298 567 298 563 298 557 c 2
 298 543 l 1
EndSplineSet
Validated: 37
EndChar

StartChar: uniF05D
Encoding: 61533 61533 69
Width: 1024
VWidth: 0
Flags: HW
LayerCount: 2
Fore
SplineSet
806.965 461.752 m 1
 838.784 461.752 l 1
 838.784 155.683 l 1
 806.965 155.683 l 1
 679.883 231.395 l 1
 679.883 386.478 l 1
 806.965 461.752 l 1
185.216 431.533 m 2
 185.216 465.752 212.906 493.4 247.072 493.4 c 2
 648.971 493.4 l 1
 648.971 120.6 l 1
 247.072 120.6 l 2
 212.906 120.6 185.216 148.291 185.216 182.541 c 2
 185.216 431.533 l 2
EndSplineSet
Validated: 1
EndChar

StartChar: uniF05E
Encoding: 61534 61534 70
Width: 1024
VWidth: 0
Flags: HW
LayerCount: 2
Fore
SplineSet
161 658 m 1
 863 658 l 1
 863 -44 l 1
 161 -44 l 1
 161 658 l 1
816 3 m 1
 816 610 l 1
 209 610 l 1
 209 3 l 1
 816 3 l 1
774 158 m 1
 774 56 l 1
 256 56 l 1
 256 234 l 1
 381 323 l 1
 532 189 l 1
 642 238 l 1
 774 158 l 1
EndSplineSet
Validated: 1
EndChar

StartChar: uniF059
Encoding: 61529 61529 71
Width: 1024
VWidth: 0
Flags: HW
LayerCount: 2
Fore
SplineSet
886.891 328.92 m 1
 887.008 286.552 l 1
 798.154 286.402 l 1
 787.968 144.92 675.157 31.6504 533.696 20.9629 c 1
 533.909 -67.9756 l 1
 491.488 -68.04 l 1
 491.339 20.8984 l 1
 349.866 31.043 236.598 143.854 225.888 285.271 c 1
 137.035 285.102 l 1
 136.992 327.48 l 1
 225.846 327.672 l 1
 235.946 469.123 348.8 582.392 490.197 593.08 c 1
 490.048 681.965 l 1
 532.47 682.04 l 1
 532.641 593.187 l 1
 674.123 583.043 787.413 470.211 798.08 328.771 c 1
 886.891 328.92 l 1
512.427 62.2529 m 0
 647.402 62.499 757.077 172.504 756.778 307.47 c 0
 756.555 442.478 646.496 552.077 511.488 551.832 c 0
 376.512 551.565 266.934 441.518 267.222 306.53 c 0
 267.456 171.565 377.451 61.9863 512.427 62.2529 c 0
EndSplineSet
Validated: 33
EndChar

StartChar: uniF05A
Encoding: 61530 61530 72
Width: 1024
VWidth: 0
Flags: HW
LayerCount: 2
Fore
SplineSet
512 456 m 0
 594 456 661 389 661 307 c 0
 661 225 594 158 512 158 c 0
 430 158 363 225 363 307 c 0
 363 389 430 456 512 456 c 0
887 329 m 1
 887 287 l 1
 798 286 l 1
 788 145 675 32 534 21 c 1
 534 -68 l 1
 491 -68 l 1
 491 21 l 1
 350 31 237 144 226 285 c 1
 137 285 l 1
 137 327 l 1
 226 328 l 1
 236 469 349 582 490 593 c 1
 490 682 l 1
 532 682 l 1
 533 593 l 1
 674 583 787 470 798 329 c 1
 887 329 l 1
512 62 m 0
 647 62 757 172 757 307 c 0
 757 442 646 552 511 552 c 0
 376 552 267 442 267 307 c 0
 267 172 377 62 512 62 c 0
EndSplineSet
Validated: 1
EndChar

StartChar: uniF092
Encoding: 61586 61586 73
Width: 1024
VWidth: 0
Flags: H
LayerCount: 2
Fore
SplineSet
544 669.667 m 2
 567.146 669.24 597.333 669.667 597.333 669.667 c 1
 768 499 l 1
 768 328.333 l 1
 512 200.333 l 1
 256 328.333 l 1
 256 669.667 l 1
 544 669.667 l 2
597.333 509.667 m 1
 682.667 509.667 l 1
 597.333 595 l 1
 597.333 509.667 l 1
512 157.667 m 1
 864 328.333 l 1
 864 -34.333 l 1
 160 -34.333 l 1
 160 328.333 l 1
 512 157.667 l 1
EndSplineSet
EndChar

StartChar: uniF034
Encoding: 61492 61492 74
Width: 1024
VWidth: 0
Flags: HO
LayerCount: 2
Fore
SplineSet
363.52 556.387 m 1
 484.16 435.854 l 1
 740.587 692.387 l 1
 884.906 548.066 l 1
 628.373 291.64 l 1
 748.906 171.106 l 1
 363.52 171.106 l 1
 363.52 556.387 l 1
629.333 104.333 m 1
 704 104.333 l 1
 704 -77 l 1
 128 -77 l 1
 128 509.667 l 1
 298.667 509.667 l 1
 298.667 435 l 1
 202.667 435 l 1
 202.667 -2.33301 l 1
 629.333 -2.33301 l 1
 629.333 104.333 l 1
EndSplineSet
EndChar

StartChar: uniF035
Encoding: 61493 61493 75
Width: 1024
VWidth: 0
Flags: HO
LayerCount: 2
Fore
SplineSet
494.826 130.787 m 1
 341.547 284.066 l 1
 613.974 556.387 l 1
 484.587 691 l 1
 896.427 691 l 1
 895.253 275.213 l 1
 767.253 403.213 l 1
 494.826 130.787 l 1
629.333 168.333 m 1
 704 243 l 1
 704 -77 l 1
 128 -77 l 1
 128 509.667 l 1
 469.333 509.667 l 1
 394.667 435 l 1
 202.667 435 l 1
 202.667 -2.33301 l 1
 629.333 -2.33301 l 1
 629.333 168.333 l 1
EndSplineSet
EndChar
